M48
; DRILL file {KiCad 9.0.2} date 2026-08-30T12:36:04-0500
; FORMAT={-:-/ absolute / metric / decimal}
; #@! TF.CreationDate,2026-08-30T12:36:04-05:00
; #@! TF.GenerationSoftware,Kicad,Pcbnew,9.0.2
; #@! TF.FileFunction,Plated,1,2,PTH
FMAT,2
METRIC
; #@! TA.AperFunction,Plated,PTH,ComponentDrill
T1C0.200
; #@! TA.AperFunction,Plated,PTH,ViaDrill
T2C0.300
; #@! TA.AperFunction,Plated,PTH,ComponentDrill
T3C0.600
; #@! TA.AperFunction,Plated,PTH,ComponentDrill
T4C1.000
%
G90
G05
T1
X161.925Y-78.4
X161.925Y-79.8
X162.625Y-77.7
X162.625Y-79.1
X162.625Y-80.5
X163.325Y-78.4
X163.325Y-79.8
X164.025Y-77.7
X164.025Y-79.1
X164.025Y-80.5
X164.725Y-78.4
X164.725Y-79.8
T2
X151.4Y-71.6
X151.7Y-113.7
X153.2Y-75.425
X153.2Y-86.7
X153.2Y-89.462
X153.3Y-88.2
X153.4Y-74.2
X153.9Y-97.0
X154.5Y-70.8
X155.3Y-121.0
X156.05Y-94.8
X156.7Y-90.4
X157.55Y-87.396
X158.3Y-85.6
X159.4Y-117.2
X159.67Y-93.82
X159.9Y-113.3
X160.29Y-97.55
X161.15Y-108.0
X161.7Y-73.1
X163.1Y-94.73
X163.7Y-118.2
X163.8Y-91.6
X164.0Y-119.6
X164.7Y-112.0
X164.845Y-117.745
X165.169Y-92.85
X165.5Y-113.6
X166.4Y-118.6
X166.5Y-82.2
X167.3Y-119.25
X167.4Y-117.8
X167.65Y-95.15
X167.9Y-93.3
X167.9Y-105.3
X168.712Y-114.985
X168.79Y-99.01
X168.8Y-87.0
X169.0Y-96.9
X169.7Y-92.2
X169.7Y-115.2
X170.509Y-91.981
X171.1Y-117.2
X171.831Y-91.61
X171.931Y-93.631
X172.2Y-90.9
X172.9Y-100.2
X173.31Y-105.47
X174.32Y-120.87
X174.6Y-91.3
X174.63Y-92.92
X176.0Y-80.1
X178.63Y-108.5
T4
X177.0Y-93.46
X177.0Y-96.0
X177.0Y-98.54
X177.0Y-101.08
X177.0Y-103.62
X177.0Y-106.16
X177.0Y-108.7
X177.0Y-111.24
T3
G00X161.08Y-116.22
M15
G01X161.08Y-117.32
M16
G05
G00X161.08Y-120.65
M15
G01X161.08Y-121.25
M16
G05
G00X169.72Y-116.22
M15
G01X169.72Y-117.32
M16
G05
G00X169.72Y-120.65
M15
G01X169.72Y-121.25
M16
G05
M30
