%TF.GenerationSoftware,KiCad,Pcbnew,9.0.2*%
%TF.CreationDate,2026-08-30T12:36:06-05:00*%
%TF.ProjectId,DevBoard,44657642-6f61-4726-942e-6b696361645f,rev?*%
%TF.SameCoordinates,Original*%
%TF.FileFunction,Copper,L2,Bot*%
%TF.FilePolarity,Positive*%
%FSLAX46Y46*%
G04 Gerber Fmt 4.6, Leading zero omitted, Abs format (unit mm)*
G04 Created by KiCad (PCBNEW 9.0.2) date 2026-08-30 12:36:06*
%MOMM*%
%LPD*%
G01*
G04 APERTURE LIST*
%TA.AperFunction,HeatsinkPad*%
%ADD10O,1.000000X2.100000*%
%TD*%
%TA.AperFunction,HeatsinkPad*%
%ADD11O,1.000000X1.600000*%
%TD*%
%TA.AperFunction,ComponentPad*%
%ADD12R,1.700000X1.700000*%
%TD*%
%TA.AperFunction,ComponentPad*%
%ADD13C,1.700000*%
%TD*%
%TA.AperFunction,HeatsinkPad*%
%ADD14C,0.600000*%
%TD*%
%TA.AperFunction,ViaPad*%
%ADD15C,0.600000*%
%TD*%
%TA.AperFunction,Conductor*%
%ADD16C,0.300000*%
%TD*%
%TA.AperFunction,Conductor*%
%ADD17C,0.500000*%
%TD*%
G04 APERTURE END LIST*
D10*
%TO.P,J1,S1,SHIELD*%
%TO.N,GND*%
X161080000Y-116770000D03*
D11*
X161080000Y-120950000D03*
D10*
X169720000Y-116770000D03*
D11*
X169720000Y-120950000D03*
%TD*%
D12*
%TO.P,J2,1,Pin_1*%
%TO.N,ESP_3v3*%
X177000000Y-111240000D03*
D13*
%TO.P,J2,2,Pin_2*%
%TO.N,GND*%
X177000000Y-108700000D03*
%TO.P,J2,3,Pin_3*%
%TO.N,DIN*%
X177000000Y-106160000D03*
%TO.P,J2,4,Pin_4*%
%TO.N,CLK*%
X177000000Y-103620000D03*
%TO.P,J2,5,Pin_5*%
%TO.N,CS*%
X177000000Y-101080000D03*
%TO.P,J2,6,Pin_6*%
%TO.N,DC*%
X177000000Y-98540000D03*
%TO.P,J2,7,Pin_7*%
%TO.N,RST*%
X177000000Y-96000000D03*
%TO.P,J2,8,Pin_8*%
%TO.N,BL*%
X177000000Y-93460000D03*
%TD*%
D14*
%TO.P,U2,41,GND*%
%TO.N,GND*%
X161925000Y-78400000D03*
X161925000Y-79800000D03*
X162625000Y-77700000D03*
X162625000Y-79100000D03*
X162625000Y-80500000D03*
X163325000Y-78400000D03*
X163325000Y-79800000D03*
X164025000Y-77700000D03*
X164025000Y-79100000D03*
X164025000Y-80500000D03*
X164725000Y-78400000D03*
X164725000Y-79800000D03*
%TD*%
D15*
%TO.N,GND*%
X153900000Y-97000000D03*
X153400000Y-74200000D03*
X161700000Y-73100000D03*
X169700000Y-115200000D03*
X163100000Y-94730000D03*
X153200000Y-86700000D03*
X174320000Y-120870000D03*
X151700000Y-113700000D03*
X178630000Y-108500000D03*
X176000000Y-80100000D03*
X168712022Y-114985218D03*
X171100000Y-117200000D03*
X151400000Y-71600000D03*
X167900000Y-93300000D03*
X159400000Y-117200000D03*
X160290000Y-97550000D03*
X153200000Y-75425000D03*
X154500000Y-70800000D03*
X159900000Y-113300000D03*
X166500000Y-82200000D03*
X153300000Y-88200000D03*
X156050000Y-94800000D03*
X159670000Y-93820000D03*
X174630000Y-92920000D03*
X173310000Y-105470000D03*
X153200000Y-89462500D03*
X155300000Y-121000000D03*
X161150000Y-108000000D03*
%TO.N,CHIP_PU*%
X167650000Y-95150000D03*
X165169122Y-92849999D03*
%TO.N,Net-(D1-A)*%
X163700000Y-118200000D03*
X167300000Y-119250000D03*
X167400000Y-117800000D03*
X164000000Y-119600000D03*
%TO.N,D-*%
X164844640Y-117744640D03*
X157550000Y-87395949D03*
X164700000Y-112000000D03*
X166400000Y-118600000D03*
%TO.N,D+*%
X165500000Y-113600000D03*
X156700000Y-90400000D03*
%TO.N,RGB*%
X169000000Y-96900000D03*
X168800000Y-87000000D03*
X168789669Y-99010331D03*
X167900000Y-105300000D03*
%TO.N,CLK*%
X169700000Y-92200000D03*
X172900000Y-100200000D03*
%TO.N,DC*%
X170509311Y-91981378D03*
%TO.N,DIN*%
X158300000Y-85600000D03*
%TO.N,CS*%
X163800000Y-91600000D03*
%TO.N,RST*%
X171931331Y-93631331D03*
X171831343Y-91609997D03*
%TO.N,BL*%
X174600000Y-91300000D03*
X172200000Y-90900000D03*
%TD*%
D16*
%TO.N,GND*%
X153900000Y-97000000D02*
X153900000Y-96950000D01*
X153900000Y-96950000D02*
X156050000Y-94800000D01*
%TO.N,CHIP_PU*%
X165349999Y-92849999D02*
X165169122Y-92849999D01*
X167650000Y-95150000D02*
X165349999Y-92849999D01*
%TO.N,Net-(D1-A)*%
X163700000Y-118200000D02*
X163700000Y-119300000D01*
X167300000Y-117900000D02*
X167400000Y-117800000D01*
X167300000Y-119250000D02*
X167300000Y-117900000D01*
X163700000Y-119300000D02*
X164000000Y-119600000D01*
%TO.N,D-*%
X165700000Y-118600000D02*
X164844640Y-117744640D01*
X166400000Y-118600000D02*
X165700000Y-118600000D01*
X157550000Y-87850000D02*
X157550000Y-87395949D01*
X164700000Y-95000000D02*
X157550000Y-87850000D01*
X164700000Y-112000000D02*
X164700000Y-95000000D01*
%TO.N,D+*%
X164100000Y-113600000D02*
X165500000Y-113600000D01*
X156700000Y-90400000D02*
X156700000Y-106200000D01*
X156700000Y-106200000D02*
X164100000Y-113600000D01*
%TO.N,RGB*%
X168400000Y-87400000D02*
X168400000Y-92879346D01*
X168551000Y-93030346D02*
X168551000Y-93569654D01*
X168800000Y-87000000D02*
X168400000Y-87400000D01*
X168551000Y-93569654D02*
X168400000Y-93720654D01*
X168789669Y-99010331D02*
X168789669Y-104410331D01*
X168400000Y-92879346D02*
X168551000Y-93030346D01*
X168789669Y-104410331D02*
X167900000Y-105300000D01*
X168400000Y-96300000D02*
X169000000Y-96900000D01*
X168400000Y-93720654D02*
X168400000Y-96300000D01*
%TO.N,CLK*%
X170200000Y-97500000D02*
X170200000Y-93529175D01*
X172900000Y-100200000D02*
X170200000Y-97500000D01*
X170200000Y-93529175D02*
X170008311Y-93337486D01*
X170008311Y-92508311D02*
X169700000Y-92200000D01*
X170008311Y-93337486D02*
X170008311Y-92508311D01*
%TO.N,DC*%
X170509311Y-93129965D02*
X175919346Y-98540000D01*
X170509311Y-91981378D02*
X170509311Y-93129965D01*
X175919346Y-98540000D02*
X177000000Y-98540000D01*
D17*
%TO.N,DIN*%
X165301000Y-95001000D02*
X168559331Y-98259331D01*
X158301000Y-87707024D02*
X158300000Y-87708024D01*
X158301000Y-87084874D02*
X158301000Y-87707024D01*
X176460000Y-106160000D02*
X177000000Y-106160000D01*
X165301000Y-94751058D02*
X165301000Y-95001000D01*
X158300000Y-87750058D02*
X165301000Y-94751058D01*
X158300000Y-87083874D02*
X158301000Y-87084874D01*
X158300000Y-85600000D02*
X158300000Y-87083874D01*
X168559331Y-98259331D02*
X169100744Y-98259331D01*
X169100744Y-98259331D02*
X169540669Y-98699256D01*
X169540669Y-99240669D02*
X176460000Y-106160000D01*
X158300000Y-87708024D02*
X158300000Y-87750058D01*
X169540669Y-98699256D02*
X169540669Y-99240669D01*
D16*
%TO.N,CS*%
X177000000Y-101080000D02*
X172771355Y-101080000D01*
X165902000Y-94502116D02*
X163800000Y-92400116D01*
X163800000Y-92400116D02*
X163800000Y-91600000D01*
X172771355Y-101080000D02*
X169243619Y-97552264D01*
X168100331Y-96920985D02*
X168100331Y-96800331D01*
X168731610Y-97552264D02*
X168100331Y-96920985D01*
X169243619Y-97552264D02*
X168731610Y-97552264D01*
X165902000Y-94602000D02*
X165902000Y-94502116D01*
X168100331Y-96800331D02*
X165902000Y-94602000D01*
%TO.N,RST*%
X171831343Y-91609997D02*
X171831343Y-93531343D01*
X171831343Y-93531343D02*
X171931331Y-93631331D01*
%TO.N,BL*%
X174600000Y-91300000D02*
X172600000Y-91300000D01*
X172600000Y-91300000D02*
X172200000Y-90900000D01*
%TD*%
%TA.AperFunction,Conductor*%
%TO.N,GND*%
G36*
X178892539Y-69840185D02*
G01*
X178938294Y-69892989D01*
X178949500Y-69944500D01*
X178949500Y-119661977D01*
X178949482Y-119664067D01*
X178902068Y-122477249D01*
X178881257Y-122543947D01*
X178827689Y-122588805D01*
X178777234Y-122599156D01*
X161285667Y-122478938D01*
X161218764Y-122458793D01*
X161173373Y-122405676D01*
X161163905Y-122336451D01*
X161193366Y-122273096D01*
X161252403Y-122235727D01*
X161262329Y-122233323D01*
X161371689Y-122211570D01*
X161371693Y-122211569D01*
X161553671Y-122136192D01*
X161553684Y-122136185D01*
X161717462Y-122026751D01*
X161717466Y-122026748D01*
X161856748Y-121887466D01*
X161856751Y-121887462D01*
X161966185Y-121723684D01*
X161966192Y-121723671D01*
X162041569Y-121541693D01*
X162041572Y-121541681D01*
X162079999Y-121348495D01*
X162080000Y-121348492D01*
X162080000Y-121200000D01*
X161380000Y-121200000D01*
X161380000Y-120700000D01*
X162080000Y-120700000D01*
X162080000Y-120551508D01*
X162079999Y-120551504D01*
X168720000Y-120551504D01*
X168720000Y-120700000D01*
X169420000Y-120700000D01*
X169420000Y-121200000D01*
X168720000Y-121200000D01*
X168720000Y-121348495D01*
X168758427Y-121541681D01*
X168758430Y-121541693D01*
X168833807Y-121723671D01*
X168833814Y-121723684D01*
X168943248Y-121887462D01*
X168943251Y-121887466D01*
X169082533Y-122026748D01*
X169082537Y-122026751D01*
X169246315Y-122136185D01*
X169246328Y-122136192D01*
X169428308Y-122211569D01*
X169470000Y-122219862D01*
X169470000Y-121416988D01*
X169479940Y-121434205D01*
X169535795Y-121490060D01*
X169604204Y-121529556D01*
X169680504Y-121550000D01*
X169759496Y-121550000D01*
X169835796Y-121529556D01*
X169904205Y-121490060D01*
X169960060Y-121434205D01*
X169970000Y-121416988D01*
X169970000Y-122219862D01*
X170011690Y-122211569D01*
X170011692Y-122211569D01*
X170193671Y-122136192D01*
X170193684Y-122136185D01*
X170357462Y-122026751D01*
X170357466Y-122026748D01*
X170496748Y-121887466D01*
X170496751Y-121887462D01*
X170606185Y-121723684D01*
X170606192Y-121723671D01*
X170681569Y-121541693D01*
X170681572Y-121541681D01*
X170719999Y-121348495D01*
X170720000Y-121348492D01*
X170720000Y-121200000D01*
X170020000Y-121200000D01*
X170020000Y-120700000D01*
X170720000Y-120700000D01*
X170720000Y-120551508D01*
X170719999Y-120551504D01*
X170681572Y-120358318D01*
X170681569Y-120358306D01*
X170606192Y-120176328D01*
X170606185Y-120176315D01*
X170496751Y-120012537D01*
X170496748Y-120012533D01*
X170357466Y-119873251D01*
X170357462Y-119873248D01*
X170193684Y-119763814D01*
X170193671Y-119763807D01*
X170011691Y-119688429D01*
X170011683Y-119688427D01*
X169970000Y-119680135D01*
X169970000Y-120483011D01*
X169960060Y-120465795D01*
X169904205Y-120409940D01*
X169835796Y-120370444D01*
X169759496Y-120350000D01*
X169680504Y-120350000D01*
X169604204Y-120370444D01*
X169535795Y-120409940D01*
X169479940Y-120465795D01*
X169470000Y-120483011D01*
X169470000Y-119680136D01*
X169469999Y-119680135D01*
X169428316Y-119688427D01*
X169428308Y-119688429D01*
X169246328Y-119763807D01*
X169246315Y-119763814D01*
X169082537Y-119873248D01*
X169082533Y-119873251D01*
X168943251Y-120012533D01*
X168943248Y-120012537D01*
X168833814Y-120176315D01*
X168833807Y-120176328D01*
X168758430Y-120358306D01*
X168758427Y-120358318D01*
X168720000Y-120551504D01*
X162079999Y-120551504D01*
X162041572Y-120358318D01*
X162041569Y-120358306D01*
X161966192Y-120176328D01*
X161966185Y-120176315D01*
X161856751Y-120012537D01*
X161856748Y-120012533D01*
X161717466Y-119873251D01*
X161717462Y-119873248D01*
X161553684Y-119763814D01*
X161553671Y-119763807D01*
X161371691Y-119688429D01*
X161371683Y-119688427D01*
X161330000Y-119680135D01*
X161330000Y-120483011D01*
X161320060Y-120465795D01*
X161264205Y-120409940D01*
X161195796Y-120370444D01*
X161119496Y-120350000D01*
X161040504Y-120350000D01*
X160964204Y-120370444D01*
X160895795Y-120409940D01*
X160839940Y-120465795D01*
X160830000Y-120483011D01*
X160830000Y-119680136D01*
X160829999Y-119680135D01*
X160788316Y-119688427D01*
X160788308Y-119688429D01*
X160606328Y-119763807D01*
X160606315Y-119763814D01*
X160442537Y-119873248D01*
X160442533Y-119873251D01*
X160303251Y-120012533D01*
X160303248Y-120012537D01*
X160193814Y-120176315D01*
X160193807Y-120176328D01*
X160118430Y-120358306D01*
X160118427Y-120358318D01*
X160080000Y-120551504D01*
X160080000Y-120700000D01*
X160780000Y-120700000D01*
X160780000Y-121200000D01*
X160080000Y-121200000D01*
X160080000Y-121348495D01*
X160118427Y-121541681D01*
X160118430Y-121541693D01*
X160193807Y-121723671D01*
X160193814Y-121723684D01*
X160303248Y-121887462D01*
X160303251Y-121887466D01*
X160442533Y-122026748D01*
X160442537Y-122026751D01*
X160606315Y-122136185D01*
X160606328Y-122136192D01*
X160788306Y-122211569D01*
X160788310Y-122211570D01*
X160882887Y-122230382D01*
X160944798Y-122262767D01*
X160979373Y-122323482D01*
X160975634Y-122393252D01*
X160934768Y-122449924D01*
X160869751Y-122475506D01*
X160857845Y-122475997D01*
X151023648Y-122408408D01*
X150956745Y-122388263D01*
X150911354Y-122335146D01*
X150900500Y-122284411D01*
X150900500Y-116121504D01*
X160080000Y-116121504D01*
X160080000Y-116520000D01*
X160780000Y-116520000D01*
X160780000Y-117020000D01*
X160080000Y-117020000D01*
X160080000Y-117418495D01*
X160118427Y-117611681D01*
X160118430Y-117611693D01*
X160193807Y-117793671D01*
X160193814Y-117793684D01*
X160303248Y-117957462D01*
X160303251Y-117957466D01*
X160442533Y-118096748D01*
X160442537Y-118096751D01*
X160606315Y-118206185D01*
X160606328Y-118206192D01*
X160788308Y-118281569D01*
X160830000Y-118289862D01*
X160830000Y-117486988D01*
X160839940Y-117504205D01*
X160895795Y-117560060D01*
X160964204Y-117599556D01*
X161040504Y-117620000D01*
X161119496Y-117620000D01*
X161195796Y-117599556D01*
X161264205Y-117560060D01*
X161320060Y-117504205D01*
X161330000Y-117486988D01*
X161330000Y-118289862D01*
X161371690Y-118281569D01*
X161371692Y-118281569D01*
X161553671Y-118206192D01*
X161553684Y-118206185D01*
X161717462Y-118096751D01*
X161717466Y-118096748D01*
X161856748Y-117957466D01*
X161856751Y-117957462D01*
X161969574Y-117788613D01*
X161971007Y-117789570D01*
X162014198Y-117745580D01*
X162082332Y-117730103D01*
X162148018Y-117753919D01*
X162150089Y-117755697D01*
X162150189Y-117755568D01*
X162156630Y-117760510D01*
X162156635Y-117760515D01*
X162261088Y-117820821D01*
X162287861Y-117836279D01*
X162287865Y-117836281D01*
X162434234Y-117875500D01*
X162434236Y-117875500D01*
X162585764Y-117875500D01*
X162585766Y-117875500D01*
X162732135Y-117836281D01*
X162748468Y-117826850D01*
X162816367Y-117810376D01*
X162882395Y-117833226D01*
X162925587Y-117888146D01*
X162932231Y-117957699D01*
X162931119Y-117962196D01*
X162899500Y-118121153D01*
X162899500Y-118278846D01*
X162930261Y-118433489D01*
X162930264Y-118433501D01*
X162990602Y-118579172D01*
X162990606Y-118579179D01*
X163028602Y-118636044D01*
X163049480Y-118702721D01*
X163049500Y-118704935D01*
X163049500Y-119364073D01*
X163073253Y-119483485D01*
X163074498Y-119489741D01*
X163074501Y-119489750D01*
X163123533Y-119608124D01*
X163123534Y-119608126D01*
X163123535Y-119608127D01*
X163194723Y-119714669D01*
X163194725Y-119714671D01*
X163197969Y-119719526D01*
X163216483Y-119764224D01*
X163230261Y-119833491D01*
X163230264Y-119833501D01*
X163290602Y-119979172D01*
X163290609Y-119979185D01*
X163378210Y-120110288D01*
X163378213Y-120110292D01*
X163489707Y-120221786D01*
X163489711Y-120221789D01*
X163620814Y-120309390D01*
X163620827Y-120309397D01*
X163718853Y-120350000D01*
X163766503Y-120369737D01*
X163921153Y-120400499D01*
X163921156Y-120400500D01*
X163921158Y-120400500D01*
X164078844Y-120400500D01*
X164078845Y-120400499D01*
X164233497Y-120369737D01*
X164379179Y-120309394D01*
X164510289Y-120221789D01*
X164621789Y-120110289D01*
X164709394Y-119979179D01*
X164769737Y-119833497D01*
X164800500Y-119678842D01*
X164800500Y-119521158D01*
X164800500Y-119521155D01*
X164800499Y-119521153D01*
X164769737Y-119366503D01*
X164769735Y-119366498D01*
X164709397Y-119220827D01*
X164709390Y-119220814D01*
X164621789Y-119089711D01*
X164621786Y-119089707D01*
X164510289Y-118978210D01*
X164405609Y-118908266D01*
X164400518Y-118902174D01*
X164393297Y-118898877D01*
X164378433Y-118875749D01*
X164360804Y-118854654D01*
X164358852Y-118845279D01*
X164355523Y-118840099D01*
X164350500Y-118805164D01*
X164350500Y-118704934D01*
X164370185Y-118637895D01*
X164371334Y-118636138D01*
X164409394Y-118579179D01*
X164414396Y-118567100D01*
X164458234Y-118512698D01*
X164524527Y-118490630D01*
X164576408Y-118499989D01*
X164611143Y-118514377D01*
X164678220Y-118527719D01*
X164740128Y-118560101D01*
X164741708Y-118561654D01*
X165285325Y-119105272D01*
X165285326Y-119105273D01*
X165285329Y-119105275D01*
X165285331Y-119105277D01*
X165391873Y-119176465D01*
X165510256Y-119225501D01*
X165510260Y-119225501D01*
X165510261Y-119225502D01*
X165635928Y-119250500D01*
X165635931Y-119250500D01*
X165895065Y-119250500D01*
X165962104Y-119270185D01*
X165963909Y-119271366D01*
X166020821Y-119309394D01*
X166020823Y-119309395D01*
X166020827Y-119309397D01*
X166152819Y-119364069D01*
X166166503Y-119369737D01*
X166287571Y-119393819D01*
X166321153Y-119400499D01*
X166321156Y-119400500D01*
X166413122Y-119400500D01*
X166480161Y-119420185D01*
X166525916Y-119472989D01*
X166527783Y-119477931D01*
X166527932Y-119477870D01*
X166590602Y-119629172D01*
X166590609Y-119629185D01*
X166678210Y-119760288D01*
X166678213Y-119760292D01*
X166789707Y-119871786D01*
X166789711Y-119871789D01*
X166920814Y-119959390D01*
X166920827Y-119959397D01*
X167066498Y-120019735D01*
X167066503Y-120019737D01*
X167221153Y-120050499D01*
X167221156Y-120050500D01*
X167221158Y-120050500D01*
X167378844Y-120050500D01*
X167378845Y-120050499D01*
X167533497Y-120019737D01*
X167679179Y-119959394D01*
X167810289Y-119871789D01*
X167921789Y-119760289D01*
X168009394Y-119629179D01*
X168069737Y-119483497D01*
X168069738Y-119483490D01*
X168069740Y-119483485D01*
X168100499Y-119328846D01*
X168100500Y-119328844D01*
X168100500Y-119171155D01*
X168100499Y-119171153D01*
X168087395Y-119105277D01*
X168069737Y-119016503D01*
X168009394Y-118870821D01*
X167971396Y-118813953D01*
X167950520Y-118747276D01*
X167950500Y-118745064D01*
X167950500Y-118432940D01*
X167970185Y-118365901D01*
X167986820Y-118345258D01*
X168021786Y-118310292D01*
X168021789Y-118310289D01*
X168109394Y-118179179D01*
X168169737Y-118033497D01*
X168181312Y-117975308D01*
X168213697Y-117913398D01*
X168274413Y-117878823D01*
X168302929Y-117875500D01*
X168365764Y-117875500D01*
X168365766Y-117875500D01*
X168512135Y-117836281D01*
X168643365Y-117760515D01*
X168643372Y-117760507D01*
X168649811Y-117755568D01*
X168652044Y-117758478D01*
X168698258Y-117732865D01*
X168767980Y-117737411D01*
X168824176Y-117778930D01*
X168830394Y-117788634D01*
X168830426Y-117788613D01*
X168943248Y-117957462D01*
X168943251Y-117957466D01*
X169082533Y-118096748D01*
X169082537Y-118096751D01*
X169246315Y-118206185D01*
X169246328Y-118206192D01*
X169428308Y-118281569D01*
X169470000Y-118289862D01*
X169470000Y-117486988D01*
X169479940Y-117504205D01*
X169535795Y-117560060D01*
X169604204Y-117599556D01*
X169680504Y-117620000D01*
X169759496Y-117620000D01*
X169835796Y-117599556D01*
X169904205Y-117560060D01*
X169960060Y-117504205D01*
X169970000Y-117486988D01*
X169970000Y-118289862D01*
X170011690Y-118281569D01*
X170011692Y-118281569D01*
X170193671Y-118206192D01*
X170193684Y-118206185D01*
X170357462Y-118096751D01*
X170357466Y-118096748D01*
X170496748Y-117957466D01*
X170496751Y-117957462D01*
X170606185Y-117793684D01*
X170606192Y-117793671D01*
X170681569Y-117611693D01*
X170681572Y-117611681D01*
X170719999Y-117418495D01*
X170720000Y-117418492D01*
X170720000Y-117020000D01*
X170020000Y-117020000D01*
X170020000Y-116520000D01*
X170720000Y-116520000D01*
X170720000Y-116121508D01*
X170719999Y-116121504D01*
X170681572Y-115928318D01*
X170681569Y-115928306D01*
X170606192Y-115746328D01*
X170606185Y-115746315D01*
X170496751Y-115582537D01*
X170496748Y-115582533D01*
X170357466Y-115443251D01*
X170357462Y-115443248D01*
X170193684Y-115333814D01*
X170193671Y-115333807D01*
X170011691Y-115258429D01*
X170011683Y-115258427D01*
X169970000Y-115250135D01*
X169970000Y-116053011D01*
X169960060Y-116035795D01*
X169904205Y-115979940D01*
X169835796Y-115940444D01*
X169759496Y-115920000D01*
X169680504Y-115920000D01*
X169604204Y-115940444D01*
X169535795Y-115979940D01*
X169479940Y-116035795D01*
X169470000Y-116053011D01*
X169470000Y-115250136D01*
X169469999Y-115250135D01*
X169428316Y-115258427D01*
X169428308Y-115258429D01*
X169246328Y-115333807D01*
X169246315Y-115333814D01*
X169082537Y-115443248D01*
X169082533Y-115443251D01*
X168943251Y-115582533D01*
X168943248Y-115582537D01*
X168833814Y-115746315D01*
X168833807Y-115746328D01*
X168758430Y-115928306D01*
X168758427Y-115928318D01*
X168720000Y-116121504D01*
X168720000Y-116520000D01*
X169420000Y-116520000D01*
X169420000Y-117020000D01*
X168864464Y-117020000D01*
X168797425Y-117000315D01*
X168757077Y-116958000D01*
X168750517Y-116946638D01*
X168750513Y-116946633D01*
X168643367Y-116839487D01*
X168643365Y-116839485D01*
X168577750Y-116801602D01*
X168512136Y-116763719D01*
X168438950Y-116744109D01*
X168365766Y-116724500D01*
X168214234Y-116724500D01*
X168067863Y-116763719D01*
X167936635Y-116839485D01*
X167936632Y-116839487D01*
X167829487Y-116946632D01*
X167829480Y-116946641D01*
X167807067Y-116985462D01*
X167756500Y-117033677D01*
X167687892Y-117046899D01*
X167652229Y-117038022D01*
X167633498Y-117030263D01*
X167633488Y-117030260D01*
X167478845Y-116999500D01*
X167478842Y-116999500D01*
X167321158Y-116999500D01*
X167321155Y-116999500D01*
X167166510Y-117030261D01*
X167166498Y-117030264D01*
X167020827Y-117090602D01*
X167020814Y-117090609D01*
X166889711Y-117178210D01*
X166889707Y-117178213D01*
X166778213Y-117289707D01*
X166778210Y-117289711D01*
X166690609Y-117420814D01*
X166690602Y-117420827D01*
X166630264Y-117566498D01*
X166630261Y-117566508D01*
X166603769Y-117699692D01*
X166571384Y-117761603D01*
X166510668Y-117796177D01*
X166482152Y-117799500D01*
X166321155Y-117799500D01*
X166166510Y-117830261D01*
X166166498Y-117830264D01*
X166019395Y-117891196D01*
X165949926Y-117898665D01*
X165887447Y-117867389D01*
X165884262Y-117864316D01*
X165661655Y-117641709D01*
X165628170Y-117580386D01*
X165627733Y-117578292D01*
X165614377Y-117511143D01*
X165590239Y-117452870D01*
X165554037Y-117365467D01*
X165554030Y-117365454D01*
X165466429Y-117234351D01*
X165466426Y-117234347D01*
X165354932Y-117122853D01*
X165354928Y-117122850D01*
X165223825Y-117035249D01*
X165223812Y-117035242D01*
X165078141Y-116974904D01*
X165078129Y-116974901D01*
X164923485Y-116944140D01*
X164923482Y-116944140D01*
X164765798Y-116944140D01*
X164765795Y-116944140D01*
X164611150Y-116974901D01*
X164611138Y-116974904D01*
X164465467Y-117035242D01*
X164465454Y-117035249D01*
X164334351Y-117122850D01*
X164334347Y-117122853D01*
X164222853Y-117234347D01*
X164222850Y-117234351D01*
X164135249Y-117365454D01*
X164135244Y-117365464D01*
X164130242Y-117377541D01*
X164086400Y-117431945D01*
X164020106Y-117454009D01*
X163968229Y-117444649D01*
X163933501Y-117430264D01*
X163933489Y-117430261D01*
X163778845Y-117399500D01*
X163778842Y-117399500D01*
X163621158Y-117399500D01*
X163621155Y-117399500D01*
X163466510Y-117430261D01*
X163466498Y-117430264D01*
X163320827Y-117490602D01*
X163320811Y-117490611D01*
X163270632Y-117524139D01*
X163203954Y-117545016D01*
X163136575Y-117526530D01*
X163089885Y-117474551D01*
X163078710Y-117405581D01*
X163081964Y-117388960D01*
X163085500Y-117375766D01*
X163085500Y-117224234D01*
X163046281Y-117077865D01*
X162970515Y-116946635D01*
X162863365Y-116839485D01*
X162797750Y-116801602D01*
X162732136Y-116763719D01*
X162658950Y-116744109D01*
X162585766Y-116724500D01*
X162434234Y-116724500D01*
X162287863Y-116763719D01*
X162156635Y-116839485D01*
X162156632Y-116839487D01*
X162049486Y-116946633D01*
X162049482Y-116946638D01*
X162042923Y-116958000D01*
X161992356Y-117006216D01*
X161935536Y-117020000D01*
X161380000Y-117020000D01*
X161380000Y-116520000D01*
X162080000Y-116520000D01*
X162080000Y-116121508D01*
X162079999Y-116121504D01*
X162041572Y-115928318D01*
X162041569Y-115928306D01*
X161966192Y-115746328D01*
X161966185Y-115746315D01*
X161856751Y-115582537D01*
X161856748Y-115582533D01*
X161717466Y-115443251D01*
X161717462Y-115443248D01*
X161553684Y-115333814D01*
X161553671Y-115333807D01*
X161371691Y-115258429D01*
X161371683Y-115258427D01*
X161330000Y-115250135D01*
X161330000Y-116053011D01*
X161320060Y-116035795D01*
X161264205Y-115979940D01*
X161195796Y-115940444D01*
X161119496Y-115920000D01*
X161040504Y-115920000D01*
X160964204Y-115940444D01*
X160895795Y-115979940D01*
X160839940Y-116035795D01*
X160830000Y-116053011D01*
X160830000Y-115250136D01*
X160829999Y-115250135D01*
X160788316Y-115258427D01*
X160788308Y-115258429D01*
X160606328Y-115333807D01*
X160606315Y-115333814D01*
X160442537Y-115443248D01*
X160442533Y-115443251D01*
X160303251Y-115582533D01*
X160303248Y-115582537D01*
X160193814Y-115746315D01*
X160193807Y-115746328D01*
X160118430Y-115928306D01*
X160118427Y-115928318D01*
X160080000Y-116121504D01*
X150900500Y-116121504D01*
X150900500Y-90321153D01*
X155899500Y-90321153D01*
X155899500Y-90478846D01*
X155930261Y-90633489D01*
X155930264Y-90633501D01*
X155990602Y-90779172D01*
X155990606Y-90779179D01*
X156028602Y-90836044D01*
X156049480Y-90902721D01*
X156049500Y-90904935D01*
X156049500Y-106264070D01*
X156072344Y-106378906D01*
X156072345Y-106378917D01*
X156072346Y-106378917D01*
X156074498Y-106389742D01*
X156074500Y-106389747D01*
X156123533Y-106508125D01*
X156194726Y-106614673D01*
X156194727Y-106614674D01*
X161075118Y-111495064D01*
X163685330Y-114105276D01*
X163692822Y-114110282D01*
X163692831Y-114110292D01*
X163692833Y-114110289D01*
X163791873Y-114176465D01*
X163910256Y-114225501D01*
X163910260Y-114225501D01*
X163910261Y-114225502D01*
X164035928Y-114250500D01*
X164035931Y-114250500D01*
X164995065Y-114250500D01*
X165062104Y-114270185D01*
X165063909Y-114271366D01*
X165120821Y-114309394D01*
X165120823Y-114309395D01*
X165120827Y-114309397D01*
X165266498Y-114369735D01*
X165266503Y-114369737D01*
X165421153Y-114400499D01*
X165421156Y-114400500D01*
X165421158Y-114400500D01*
X165578844Y-114400500D01*
X165578845Y-114400499D01*
X165733497Y-114369737D01*
X165879179Y-114309394D01*
X166010289Y-114221789D01*
X166121789Y-114110289D01*
X166209394Y-113979179D01*
X166269737Y-113833497D01*
X166300500Y-113678842D01*
X166300500Y-113521158D01*
X166300500Y-113521155D01*
X166300499Y-113521153D01*
X166269738Y-113366510D01*
X166269737Y-113366503D01*
X166269735Y-113366498D01*
X166209397Y-113220827D01*
X166209390Y-113220814D01*
X166121789Y-113089711D01*
X166121786Y-113089707D01*
X166010292Y-112978213D01*
X166010288Y-112978210D01*
X165879185Y-112890609D01*
X165879172Y-112890602D01*
X165733501Y-112830264D01*
X165733489Y-112830261D01*
X165578845Y-112799500D01*
X165578842Y-112799500D01*
X165421158Y-112799500D01*
X165421153Y-112799500D01*
X165337011Y-112816237D01*
X165267419Y-112810010D01*
X165212242Y-112767147D01*
X165188998Y-112701257D01*
X165205066Y-112633260D01*
X165225135Y-112606942D01*
X165321789Y-112510289D01*
X165409394Y-112379179D01*
X165469737Y-112233497D01*
X165500500Y-112078842D01*
X165500500Y-111921158D01*
X165500500Y-111921155D01*
X165500499Y-111921153D01*
X165469738Y-111766510D01*
X165469737Y-111766503D01*
X165409394Y-111620821D01*
X165371396Y-111563953D01*
X165350520Y-111497276D01*
X165350500Y-111495064D01*
X165350500Y-96411230D01*
X165370185Y-96344191D01*
X165422989Y-96298436D01*
X165492147Y-96288492D01*
X165555703Y-96317517D01*
X165562181Y-96323549D01*
X167972324Y-98733692D01*
X168005809Y-98795015D01*
X168006260Y-98845564D01*
X167989169Y-98931484D01*
X167989169Y-99089177D01*
X168019930Y-99243820D01*
X168019933Y-99243832D01*
X168080271Y-99389503D01*
X168080275Y-99389510D01*
X168118271Y-99446375D01*
X168139149Y-99513052D01*
X168139169Y-99515266D01*
X168139169Y-104089522D01*
X168119484Y-104156561D01*
X168102850Y-104177203D01*
X167797068Y-104482984D01*
X167735745Y-104516469D01*
X167733579Y-104516920D01*
X167666508Y-104530261D01*
X167666498Y-104530264D01*
X167520827Y-104590602D01*
X167520814Y-104590609D01*
X167389711Y-104678210D01*
X167389707Y-104678213D01*
X167278213Y-104789707D01*
X167278210Y-104789711D01*
X167190609Y-104920814D01*
X167190602Y-104920827D01*
X167130264Y-105066498D01*
X167130261Y-105066510D01*
X167099500Y-105221153D01*
X167099500Y-105378846D01*
X167130261Y-105533489D01*
X167130264Y-105533501D01*
X167190602Y-105679172D01*
X167190609Y-105679185D01*
X167278210Y-105810288D01*
X167278213Y-105810292D01*
X167389707Y-105921786D01*
X167389711Y-105921789D01*
X167520814Y-106009390D01*
X167520827Y-106009397D01*
X167627817Y-106053713D01*
X167666503Y-106069737D01*
X167821153Y-106100499D01*
X167821156Y-106100500D01*
X167821158Y-106100500D01*
X167978844Y-106100500D01*
X167978845Y-106100499D01*
X168133497Y-106069737D01*
X168279179Y-106009394D01*
X168410289Y-105921789D01*
X168521789Y-105810289D01*
X168609394Y-105679179D01*
X168669737Y-105533497D01*
X168683079Y-105466416D01*
X168715463Y-105404509D01*
X168716957Y-105402987D01*
X169294946Y-104825000D01*
X169366134Y-104718458D01*
X169415170Y-104600075D01*
X169435118Y-104499792D01*
X169440169Y-104474402D01*
X169440169Y-100500899D01*
X169459854Y-100433860D01*
X169512658Y-100388105D01*
X169581816Y-100378161D01*
X169645372Y-100407186D01*
X169651850Y-100413218D01*
X175648219Y-106409587D01*
X175681704Y-106470910D01*
X175682533Y-106475322D01*
X175682753Y-106476239D01*
X175682754Y-106476243D01*
X175727733Y-106614674D01*
X175748444Y-106678414D01*
X175844951Y-106867820D01*
X175969890Y-107039786D01*
X176120213Y-107190109D01*
X176292179Y-107315048D01*
X176292181Y-107315049D01*
X176292184Y-107315051D01*
X176301493Y-107319794D01*
X176352290Y-107367766D01*
X176369087Y-107435587D01*
X176346552Y-107501722D01*
X176301505Y-107540760D01*
X176292446Y-107545376D01*
X176292440Y-107545380D01*
X176238282Y-107584727D01*
X176238282Y-107584728D01*
X176870591Y-108217037D01*
X176807007Y-108234075D01*
X176692993Y-108299901D01*
X176599901Y-108392993D01*
X176534075Y-108507007D01*
X176517037Y-108570591D01*
X175884728Y-107938282D01*
X175884727Y-107938282D01*
X175845380Y-107992439D01*
X175748904Y-108181782D01*
X175683242Y-108383869D01*
X175683242Y-108383872D01*
X175650000Y-108593753D01*
X175650000Y-108806246D01*
X175683242Y-109016127D01*
X175683242Y-109016130D01*
X175748904Y-109218217D01*
X175845375Y-109407550D01*
X175884728Y-109461716D01*
X176517037Y-108829408D01*
X176534075Y-108892993D01*
X176599901Y-109007007D01*
X176692993Y-109100099D01*
X176807007Y-109165925D01*
X176870590Y-109182962D01*
X176200370Y-109853181D01*
X176139047Y-109886666D01*
X176112698Y-109889500D01*
X176102134Y-109889500D01*
X176102123Y-109889501D01*
X176042516Y-109895908D01*
X175907671Y-109946202D01*
X175907664Y-109946206D01*
X175792455Y-110032452D01*
X175792452Y-110032455D01*
X175706206Y-110147664D01*
X175706202Y-110147671D01*
X175655908Y-110282517D01*
X175649501Y-110342116D01*
X175649501Y-110342123D01*
X175649500Y-110342135D01*
X175649500Y-112137870D01*
X175649501Y-112137876D01*
X175655908Y-112197483D01*
X175706202Y-112332328D01*
X175706206Y-112332335D01*
X175792452Y-112447544D01*
X175792455Y-112447547D01*
X175907664Y-112533793D01*
X175907671Y-112533797D01*
X176042517Y-112584091D01*
X176042516Y-112584091D01*
X176049444Y-112584835D01*
X176102127Y-112590500D01*
X177897872Y-112590499D01*
X177957483Y-112584091D01*
X178092331Y-112533796D01*
X178207546Y-112447546D01*
X178293796Y-112332331D01*
X178344091Y-112197483D01*
X178350500Y-112137873D01*
X178350499Y-110342128D01*
X178344091Y-110282517D01*
X178293796Y-110147669D01*
X178293795Y-110147668D01*
X178293793Y-110147664D01*
X178207547Y-110032455D01*
X178207544Y-110032452D01*
X178092335Y-109946206D01*
X178092328Y-109946202D01*
X177957482Y-109895908D01*
X177957483Y-109895908D01*
X177897883Y-109889501D01*
X177897881Y-109889500D01*
X177897873Y-109889500D01*
X177897865Y-109889500D01*
X177887309Y-109889500D01*
X177820270Y-109869815D01*
X177799628Y-109853181D01*
X177129408Y-109182962D01*
X177192993Y-109165925D01*
X177307007Y-109100099D01*
X177400099Y-109007007D01*
X177465925Y-108892993D01*
X177482962Y-108829408D01*
X178115270Y-109461717D01*
X178115270Y-109461716D01*
X178154622Y-109407554D01*
X178251095Y-109218217D01*
X178316757Y-109016130D01*
X178316757Y-109016127D01*
X178350000Y-108806246D01*
X178350000Y-108593753D01*
X178316757Y-108383872D01*
X178316757Y-108383869D01*
X178251095Y-108181782D01*
X178154624Y-107992449D01*
X178115270Y-107938282D01*
X178115269Y-107938282D01*
X177482962Y-108570590D01*
X177465925Y-108507007D01*
X177400099Y-108392993D01*
X177307007Y-108299901D01*
X177192993Y-108234075D01*
X177129409Y-108217037D01*
X177761716Y-107584728D01*
X177707547Y-107545373D01*
X177707547Y-107545372D01*
X177698500Y-107540763D01*
X177647706Y-107492788D01*
X177630912Y-107424966D01*
X177653451Y-107358832D01*
X177698508Y-107319793D01*
X177707816Y-107315051D01*
X177787007Y-107257515D01*
X177879786Y-107190109D01*
X177879788Y-107190106D01*
X177879792Y-107190104D01*
X178030104Y-107039792D01*
X178030106Y-107039788D01*
X178030109Y-107039786D01*
X178155048Y-106867820D01*
X178155047Y-106867820D01*
X178155051Y-106867816D01*
X178251557Y-106678412D01*
X178317246Y-106476243D01*
X178350500Y-106266287D01*
X178350500Y-106053713D01*
X178317246Y-105843757D01*
X178251557Y-105641588D01*
X178155051Y-105452184D01*
X178155049Y-105452181D01*
X178155048Y-105452179D01*
X178030109Y-105280213D01*
X177879786Y-105129890D01*
X177707820Y-105004951D01*
X177707115Y-105004591D01*
X177699054Y-105000485D01*
X177648259Y-104952512D01*
X177631463Y-104884692D01*
X177653999Y-104818556D01*
X177699054Y-104779515D01*
X177707816Y-104775051D01*
X177785713Y-104718456D01*
X177879786Y-104650109D01*
X177879788Y-104650106D01*
X177879792Y-104650104D01*
X178030104Y-104499792D01*
X178030106Y-104499788D01*
X178030109Y-104499786D01*
X178155048Y-104327820D01*
X178155047Y-104327820D01*
X178155051Y-104327816D01*
X178251557Y-104138412D01*
X178317246Y-103936243D01*
X178350500Y-103726287D01*
X178350500Y-103513713D01*
X178317246Y-103303757D01*
X178251557Y-103101588D01*
X178155051Y-102912184D01*
X178155049Y-102912181D01*
X178155048Y-102912179D01*
X178030109Y-102740213D01*
X177879786Y-102589890D01*
X177707820Y-102464951D01*
X177707115Y-102464591D01*
X177699054Y-102460485D01*
X177648259Y-102412512D01*
X177631463Y-102344692D01*
X177653999Y-102278556D01*
X177699054Y-102239515D01*
X177707816Y-102235051D01*
X177729789Y-102219086D01*
X177879786Y-102110109D01*
X177879788Y-102110106D01*
X177879792Y-102110104D01*
X178030104Y-101959792D01*
X178030106Y-101959788D01*
X178030109Y-101959786D01*
X178155048Y-101787820D01*
X178155047Y-101787820D01*
X178155051Y-101787816D01*
X178251557Y-101598412D01*
X178317246Y-101396243D01*
X178350500Y-101186287D01*
X178350500Y-100973713D01*
X178317246Y-100763757D01*
X178251557Y-100561588D01*
X178155051Y-100372184D01*
X178155049Y-100372181D01*
X178155048Y-100372179D01*
X178030109Y-100200213D01*
X177879786Y-100049890D01*
X177707820Y-99924951D01*
X177707115Y-99924591D01*
X177699054Y-99920485D01*
X177648259Y-99872512D01*
X177631463Y-99804692D01*
X177653999Y-99738556D01*
X177699054Y-99699515D01*
X177707816Y-99695051D01*
X177729789Y-99679086D01*
X177879786Y-99570109D01*
X177879788Y-99570106D01*
X177879792Y-99570104D01*
X178030104Y-99419792D01*
X178030106Y-99419788D01*
X178030109Y-99419786D01*
X178155048Y-99247820D01*
X178155050Y-99247817D01*
X178155051Y-99247816D01*
X178251557Y-99058412D01*
X178317246Y-98856243D01*
X178350500Y-98646287D01*
X178350500Y-98433713D01*
X178317246Y-98223757D01*
X178251557Y-98021588D01*
X178155051Y-97832184D01*
X178155049Y-97832181D01*
X178155048Y-97832179D01*
X178030109Y-97660213D01*
X177879786Y-97509890D01*
X177707820Y-97384951D01*
X177707115Y-97384591D01*
X177699054Y-97380485D01*
X177648259Y-97332512D01*
X177631463Y-97264692D01*
X177653999Y-97198556D01*
X177699054Y-97159515D01*
X177707816Y-97155051D01*
X177729789Y-97139086D01*
X177879786Y-97030109D01*
X177879788Y-97030106D01*
X177879792Y-97030104D01*
X178030104Y-96879792D01*
X178030106Y-96879788D01*
X178030109Y-96879786D01*
X178155048Y-96707820D01*
X178155047Y-96707820D01*
X178155051Y-96707816D01*
X178251557Y-96518412D01*
X178317246Y-96316243D01*
X178350500Y-96106287D01*
X178350500Y-95893713D01*
X178317246Y-95683757D01*
X178251557Y-95481588D01*
X178155051Y-95292184D01*
X178155049Y-95292181D01*
X178155048Y-95292179D01*
X178030109Y-95120213D01*
X177879786Y-94969890D01*
X177707820Y-94844951D01*
X177707115Y-94844591D01*
X177699054Y-94840485D01*
X177648259Y-94792512D01*
X177631463Y-94724692D01*
X177653999Y-94658556D01*
X177699054Y-94619515D01*
X177707816Y-94615051D01*
X177759270Y-94577668D01*
X177879786Y-94490109D01*
X177879788Y-94490106D01*
X177879792Y-94490104D01*
X178030104Y-94339792D01*
X178030106Y-94339788D01*
X178030109Y-94339786D01*
X178155048Y-94167820D01*
X178155047Y-94167820D01*
X178155051Y-94167816D01*
X178251557Y-93978412D01*
X178317246Y-93776243D01*
X178350500Y-93566287D01*
X178350500Y-93353713D01*
X178317246Y-93143757D01*
X178251557Y-92941588D01*
X178155051Y-92752184D01*
X178155049Y-92752181D01*
X178155048Y-92752179D01*
X178030109Y-92580213D01*
X177879786Y-92429890D01*
X177707820Y-92304951D01*
X177518414Y-92208444D01*
X177518413Y-92208443D01*
X177518412Y-92208443D01*
X177316243Y-92142754D01*
X177316241Y-92142753D01*
X177316240Y-92142753D01*
X177140583Y-92114932D01*
X177106287Y-92109500D01*
X176893713Y-92109500D01*
X176859417Y-92114932D01*
X176683760Y-92142753D01*
X176683757Y-92142754D01*
X176577581Y-92177253D01*
X176481585Y-92208444D01*
X176292179Y-92304951D01*
X176120213Y-92429890D01*
X175969890Y-92580213D01*
X175844951Y-92752179D01*
X175748444Y-92941585D01*
X175682753Y-93143760D01*
X175649500Y-93353713D01*
X175649500Y-93566286D01*
X175678938Y-93752154D01*
X175682754Y-93776243D01*
X175711538Y-93864832D01*
X175748444Y-93978414D01*
X175844951Y-94167820D01*
X175969890Y-94339786D01*
X176120213Y-94490109D01*
X176292182Y-94615050D01*
X176300946Y-94619516D01*
X176351742Y-94667491D01*
X176368536Y-94735312D01*
X176345998Y-94801447D01*
X176300946Y-94840484D01*
X176292182Y-94844949D01*
X176120213Y-94969890D01*
X175969890Y-95120213D01*
X175844951Y-95292179D01*
X175748444Y-95481585D01*
X175682753Y-95683760D01*
X175649500Y-95893713D01*
X175649500Y-96106287D01*
X175655254Y-96142614D01*
X175679933Y-96298436D01*
X175682754Y-96316243D01*
X175713617Y-96411230D01*
X175748444Y-96518414D01*
X175844951Y-96707820D01*
X175969890Y-96879786D01*
X176120213Y-97030109D01*
X176292182Y-97155050D01*
X176300946Y-97159516D01*
X176351742Y-97207491D01*
X176368536Y-97275312D01*
X176345998Y-97341447D01*
X176300946Y-97380484D01*
X176292182Y-97384949D01*
X176120213Y-97509890D01*
X176120209Y-97509894D01*
X176052379Y-97577725D01*
X175991056Y-97611210D01*
X175921364Y-97606226D01*
X175877017Y-97577725D01*
X172580134Y-94280842D01*
X172546649Y-94219519D01*
X172551633Y-94149827D01*
X172564713Y-94124270D01*
X172640721Y-94010516D01*
X172640721Y-94010515D01*
X172640725Y-94010510D01*
X172701068Y-93864828D01*
X172731831Y-93710173D01*
X172731831Y-93552489D01*
X172731831Y-93552486D01*
X172731830Y-93552484D01*
X172726807Y-93527230D01*
X172701068Y-93397834D01*
X172682793Y-93353713D01*
X172640728Y-93252158D01*
X172640721Y-93252145D01*
X172553120Y-93121042D01*
X172553117Y-93121038D01*
X172518162Y-93086083D01*
X172484677Y-93024760D01*
X172481843Y-92998402D01*
X172481843Y-92114932D01*
X172487171Y-92096786D01*
X172487509Y-92077879D01*
X172501008Y-92049662D01*
X172501528Y-92047893D01*
X172502741Y-92046041D01*
X172529757Y-92005609D01*
X172583369Y-91960804D01*
X172632859Y-91950500D01*
X174095065Y-91950500D01*
X174162104Y-91970185D01*
X174163909Y-91971366D01*
X174220821Y-92009394D01*
X174220823Y-92009395D01*
X174220827Y-92009397D01*
X174318037Y-92049662D01*
X174366503Y-92069737D01*
X174502487Y-92096786D01*
X174521153Y-92100499D01*
X174521156Y-92100500D01*
X174521158Y-92100500D01*
X174678844Y-92100500D01*
X174678845Y-92100499D01*
X174833497Y-92069737D01*
X174979179Y-92009394D01*
X175110289Y-91921789D01*
X175221789Y-91810289D01*
X175309394Y-91679179D01*
X175369737Y-91533497D01*
X175400500Y-91378842D01*
X175400500Y-91221158D01*
X175400500Y-91221155D01*
X175400499Y-91221153D01*
X175374353Y-91089711D01*
X175369737Y-91066503D01*
X175337307Y-90988209D01*
X175309397Y-90920827D01*
X175309390Y-90920814D01*
X175221789Y-90789711D01*
X175221786Y-90789707D01*
X175110292Y-90678213D01*
X175110288Y-90678210D01*
X174979185Y-90590609D01*
X174979172Y-90590602D01*
X174833501Y-90530264D01*
X174833489Y-90530261D01*
X174678845Y-90499500D01*
X174678842Y-90499500D01*
X174521158Y-90499500D01*
X174521155Y-90499500D01*
X174366510Y-90530261D01*
X174366498Y-90530264D01*
X174220827Y-90590602D01*
X174220820Y-90590606D01*
X174191928Y-90609911D01*
X174163955Y-90628602D01*
X174097279Y-90649480D01*
X174095065Y-90649500D01*
X173045548Y-90649500D01*
X172978509Y-90629815D01*
X172932754Y-90577011D01*
X172930987Y-90572952D01*
X172913305Y-90530264D01*
X172909394Y-90520821D01*
X172909392Y-90520819D01*
X172909392Y-90520817D01*
X172821789Y-90389711D01*
X172821786Y-90389707D01*
X172710292Y-90278213D01*
X172710288Y-90278210D01*
X172579185Y-90190609D01*
X172579172Y-90190602D01*
X172433501Y-90130264D01*
X172433489Y-90130261D01*
X172278845Y-90099500D01*
X172278842Y-90099500D01*
X172121158Y-90099500D01*
X172121155Y-90099500D01*
X171966510Y-90130261D01*
X171966498Y-90130264D01*
X171820827Y-90190602D01*
X171820814Y-90190609D01*
X171689711Y-90278210D01*
X171689707Y-90278213D01*
X171578213Y-90389707D01*
X171578210Y-90389711D01*
X171490609Y-90520814D01*
X171490602Y-90520827D01*
X171430264Y-90666498D01*
X171430261Y-90666510D01*
X171399500Y-90821153D01*
X171399500Y-90869512D01*
X171379815Y-90936551D01*
X171344394Y-90972612D01*
X171321052Y-90988209D01*
X171321047Y-90988214D01*
X171209556Y-91099704D01*
X171209553Y-91099708D01*
X171121952Y-91230811D01*
X171121947Y-91230820D01*
X171115806Y-91245647D01*
X171071963Y-91300049D01*
X171005668Y-91322112D01*
X170937970Y-91304831D01*
X170932355Y-91301293D01*
X170888496Y-91271987D01*
X170888483Y-91271980D01*
X170742812Y-91211642D01*
X170742800Y-91211639D01*
X170588156Y-91180878D01*
X170588153Y-91180878D01*
X170430469Y-91180878D01*
X170430466Y-91180878D01*
X170275821Y-91211639D01*
X170275809Y-91211642D01*
X170130138Y-91271980D01*
X170130125Y-91271987D01*
X169999025Y-91359586D01*
X169999019Y-91359591D01*
X169976065Y-91382544D01*
X169914741Y-91416027D01*
X169864196Y-91416477D01*
X169778846Y-91399500D01*
X169778842Y-91399500D01*
X169621158Y-91399500D01*
X169621155Y-91399500D01*
X169466510Y-91430261D01*
X169466498Y-91430264D01*
X169320827Y-91490602D01*
X169320809Y-91490612D01*
X169243390Y-91542342D01*
X169176713Y-91563220D01*
X169109333Y-91544735D01*
X169062643Y-91492756D01*
X169050500Y-91439240D01*
X169050500Y-87845548D01*
X169070185Y-87778509D01*
X169122989Y-87732754D01*
X169127048Y-87730987D01*
X169179179Y-87709394D01*
X169310289Y-87621789D01*
X169421789Y-87510289D01*
X169509394Y-87379179D01*
X169569737Y-87233497D01*
X169600500Y-87078842D01*
X169600500Y-86921158D01*
X169600500Y-86921155D01*
X169600499Y-86921153D01*
X169588184Y-86859244D01*
X169569737Y-86766503D01*
X169536620Y-86686551D01*
X169509397Y-86620827D01*
X169509390Y-86620814D01*
X169421789Y-86489711D01*
X169421786Y-86489707D01*
X169310292Y-86378213D01*
X169310288Y-86378210D01*
X169179185Y-86290609D01*
X169179172Y-86290602D01*
X169033501Y-86230264D01*
X169033489Y-86230261D01*
X168878845Y-86199500D01*
X168878842Y-86199500D01*
X168721158Y-86199500D01*
X168721155Y-86199500D01*
X168566510Y-86230261D01*
X168566498Y-86230264D01*
X168420827Y-86290602D01*
X168420814Y-86290609D01*
X168289711Y-86378210D01*
X168289707Y-86378213D01*
X168178213Y-86489707D01*
X168178210Y-86489711D01*
X168090609Y-86620814D01*
X168090602Y-86620827D01*
X168030264Y-86766498D01*
X168030261Y-86766508D01*
X168016920Y-86833579D01*
X168010395Y-86847159D01*
X168008838Y-86859244D01*
X167994541Y-86880160D01*
X167990193Y-86889211D01*
X167986753Y-86893299D01*
X167894723Y-86985331D01*
X167842113Y-87064069D01*
X167838310Y-87069759D01*
X167838307Y-87069764D01*
X167823539Y-87091864D01*
X167823533Y-87091875D01*
X167774499Y-87210255D01*
X167774497Y-87210261D01*
X167749500Y-87335928D01*
X167749500Y-87335931D01*
X167749500Y-92943415D01*
X167749500Y-92943417D01*
X167749499Y-92943417D01*
X167768115Y-93037000D01*
X167768116Y-93037002D01*
X167770824Y-93050616D01*
X167774499Y-93069090D01*
X167823535Y-93187473D01*
X167858552Y-93239881D01*
X167862846Y-93249513D01*
X167866154Y-93274107D01*
X167873569Y-93297786D01*
X167870731Y-93308128D01*
X167872162Y-93318759D01*
X167861648Y-93341238D01*
X167855084Y-93365166D01*
X167852692Y-93368888D01*
X167830868Y-93401549D01*
X167830869Y-93401550D01*
X167823535Y-93412527D01*
X167774499Y-93530909D01*
X167774497Y-93530915D01*
X167749500Y-93656582D01*
X167749500Y-94030192D01*
X167729815Y-94097231D01*
X167677011Y-94142986D01*
X167607853Y-94152930D01*
X167544297Y-94123905D01*
X167537819Y-94117873D01*
X165862485Y-92442539D01*
X165847064Y-92423748D01*
X165790914Y-92339714D01*
X165790908Y-92339706D01*
X165679414Y-92228212D01*
X165679410Y-92228209D01*
X165548307Y-92140608D01*
X165548294Y-92140601D01*
X165402623Y-92080263D01*
X165402611Y-92080260D01*
X165247967Y-92049499D01*
X165247964Y-92049499D01*
X165090280Y-92049499D01*
X165090277Y-92049499D01*
X164935632Y-92080260D01*
X164935620Y-92080263D01*
X164789949Y-92140601D01*
X164789936Y-92140608D01*
X164677031Y-92216050D01*
X164646733Y-92225536D01*
X164616986Y-92236632D01*
X164613629Y-92235901D01*
X164610353Y-92236928D01*
X164579730Y-92228527D01*
X164548713Y-92221780D01*
X164544999Y-92218999D01*
X164542973Y-92218444D01*
X164520459Y-92200629D01*
X164497083Y-92177253D01*
X164463598Y-92115930D01*
X164468582Y-92046238D01*
X164481659Y-92020685D01*
X164509394Y-91979179D01*
X164569737Y-91833497D01*
X164600500Y-91678842D01*
X164600500Y-91521158D01*
X164600500Y-91521155D01*
X164600499Y-91521153D01*
X164582419Y-91430261D01*
X164569737Y-91366503D01*
X164551350Y-91322112D01*
X164509397Y-91220827D01*
X164509390Y-91220814D01*
X164421789Y-91089711D01*
X164421786Y-91089707D01*
X164310292Y-90978213D01*
X164310288Y-90978210D01*
X164179185Y-90890609D01*
X164179172Y-90890602D01*
X164033501Y-90830264D01*
X164033489Y-90830261D01*
X163878845Y-90799500D01*
X163878842Y-90799500D01*
X163721158Y-90799500D01*
X163721155Y-90799500D01*
X163566510Y-90830261D01*
X163566498Y-90830264D01*
X163420827Y-90890602D01*
X163420814Y-90890609D01*
X163289711Y-90978210D01*
X163289707Y-90978213D01*
X163178213Y-91089707D01*
X163178210Y-91089711D01*
X163090609Y-91220814D01*
X163090600Y-91220831D01*
X163085914Y-91232144D01*
X163042070Y-91286545D01*
X162975775Y-91308606D01*
X162908076Y-91291323D01*
X162883675Y-91272366D01*
X159087819Y-87476509D01*
X159054334Y-87415186D01*
X159051500Y-87388828D01*
X159051500Y-87010956D01*
X159051097Y-87006864D01*
X159050500Y-86994711D01*
X159050500Y-85904604D01*
X159059939Y-85857151D01*
X159069737Y-85833497D01*
X159100500Y-85678842D01*
X159100500Y-85521158D01*
X159100500Y-85521155D01*
X159100499Y-85521153D01*
X159069738Y-85366510D01*
X159069737Y-85366503D01*
X159069735Y-85366498D01*
X159009397Y-85220827D01*
X159009390Y-85220814D01*
X158921789Y-85089711D01*
X158921786Y-85089707D01*
X158810292Y-84978213D01*
X158810288Y-84978210D01*
X158679185Y-84890609D01*
X158679172Y-84890602D01*
X158533501Y-84830264D01*
X158533489Y-84830261D01*
X158378845Y-84799500D01*
X158378842Y-84799500D01*
X158221158Y-84799500D01*
X158221155Y-84799500D01*
X158066510Y-84830261D01*
X158066498Y-84830264D01*
X157920827Y-84890602D01*
X157920814Y-84890609D01*
X157789711Y-84978210D01*
X157789707Y-84978213D01*
X157678213Y-85089707D01*
X157678210Y-85089711D01*
X157590609Y-85220814D01*
X157590602Y-85220827D01*
X157530264Y-85366498D01*
X157530261Y-85366510D01*
X157499500Y-85521153D01*
X157499500Y-85678846D01*
X157530261Y-85833489D01*
X157530263Y-85833497D01*
X157540061Y-85857151D01*
X157549500Y-85904604D01*
X157549500Y-86478101D01*
X157529815Y-86545140D01*
X157477011Y-86590895D01*
X157449692Y-86599718D01*
X157316508Y-86626210D01*
X157316498Y-86626213D01*
X157170827Y-86686551D01*
X157170814Y-86686558D01*
X157039711Y-86774159D01*
X157039707Y-86774162D01*
X156928213Y-86885656D01*
X156928210Y-86885660D01*
X156840609Y-87016763D01*
X156840602Y-87016776D01*
X156780264Y-87162447D01*
X156780261Y-87162459D01*
X156749500Y-87317102D01*
X156749500Y-87474795D01*
X156780261Y-87629438D01*
X156780264Y-87629450D01*
X156840602Y-87775121D01*
X156840606Y-87775128D01*
X156878602Y-87831994D01*
X156898197Y-87882953D01*
X156899500Y-87891869D01*
X156899500Y-87914069D01*
X156911106Y-87972414D01*
X156911726Y-87975532D01*
X156911728Y-87975544D01*
X156924497Y-88039736D01*
X156924499Y-88039744D01*
X156973534Y-88158125D01*
X157044726Y-88264673D01*
X157044727Y-88264674D01*
X164013181Y-95233127D01*
X164046666Y-95294450D01*
X164049500Y-95320808D01*
X164049500Y-111495064D01*
X164029815Y-111562103D01*
X164028603Y-111563954D01*
X163990608Y-111620817D01*
X163990602Y-111620828D01*
X163930264Y-111766498D01*
X163930261Y-111766510D01*
X163899500Y-111921153D01*
X163899500Y-112078846D01*
X163919249Y-112178133D01*
X163913022Y-112247725D01*
X163870158Y-112302902D01*
X163804268Y-112326146D01*
X163736272Y-112310078D01*
X163709951Y-112290005D01*
X157386819Y-105966873D01*
X157353334Y-105905550D01*
X157350500Y-105879192D01*
X157350500Y-90904935D01*
X157370185Y-90837896D01*
X157371366Y-90836090D01*
X157409394Y-90779179D01*
X157469737Y-90633497D01*
X157500500Y-90478842D01*
X157500500Y-90321158D01*
X157500500Y-90321155D01*
X157500499Y-90321153D01*
X157474531Y-90190606D01*
X157469737Y-90166503D01*
X157469735Y-90166498D01*
X157409397Y-90020827D01*
X157409390Y-90020814D01*
X157321789Y-89889711D01*
X157321786Y-89889707D01*
X157210292Y-89778213D01*
X157210288Y-89778210D01*
X157079185Y-89690609D01*
X157079172Y-89690602D01*
X156933501Y-89630264D01*
X156933489Y-89630261D01*
X156778845Y-89599500D01*
X156778842Y-89599500D01*
X156621158Y-89599500D01*
X156621155Y-89599500D01*
X156466510Y-89630261D01*
X156466498Y-89630264D01*
X156320827Y-89690602D01*
X156320814Y-89690609D01*
X156189711Y-89778210D01*
X156189707Y-89778213D01*
X156078213Y-89889707D01*
X156078210Y-89889711D01*
X155990609Y-90020814D01*
X155990602Y-90020827D01*
X155930264Y-90166498D01*
X155930261Y-90166510D01*
X155899500Y-90321153D01*
X150900500Y-90321153D01*
X150900500Y-69944500D01*
X150920185Y-69877461D01*
X150972989Y-69831706D01*
X151024500Y-69820500D01*
X178825500Y-69820500D01*
X178892539Y-69840185D01*
G37*
%TD.AperFunction*%
%TD*%
M02*
