%TF.GenerationSoftware,KiCad,Pcbnew,9.0.2*%
%TF.CreationDate,2026-08-30T12:36:07-05:00*%
%TF.ProjectId,DevBoard,44657642-6f61-4726-942e-6b696361645f,rev?*%
%TF.SameCoordinates,Original*%
%TF.FileFunction,Soldermask,Top*%
%TF.FilePolarity,Negative*%
%FSLAX46Y46*%
G04 Gerber Fmt 4.6, Leading zero omitted, Abs format (unit mm)*
G04 Created by KiCad (PCBNEW 9.0.2) date 2026-08-30 12:36:07*
%MOMM*%
%LPD*%
G01*
G04 APERTURE LIST*
G04 Aperture macros list*
%AMRoundRect*
0 Rectangle with rounded corners*
0 $1 Rounding radius*
0 $2 $3 $4 $5 $6 $7 $8 $9 X,Y pos of 4 corners*
0 Add a 4 corners polygon primitive as box body*
4,1,4,$2,$3,$4,$5,$6,$7,$8,$9,$2,$3,0*
0 Add four circle primitives for the rounded corners*
1,1,$1+$1,$2,$3*
1,1,$1+$1,$4,$5*
1,1,$1+$1,$6,$7*
1,1,$1+$1,$8,$9*
0 Add four rect primitives between the rounded corners*
20,1,$1+$1,$2,$3,$4,$5,0*
20,1,$1+$1,$4,$5,$6,$7,0*
20,1,$1+$1,$6,$7,$8,$9,0*
20,1,$1+$1,$8,$9,$2,$3,0*%
G04 Aperture macros list end*
%ADD10C,0.650000*%
%ADD11R,0.600000X1.450000*%
%ADD12R,0.300000X1.450000*%
%ADD13O,1.000000X2.100000*%
%ADD14O,1.000000X1.600000*%
%ADD15RoundRect,0.375000X-0.625000X-0.375000X0.625000X-0.375000X0.625000X0.375000X-0.625000X0.375000X0*%
%ADD16RoundRect,0.500000X-0.500000X-1.400000X0.500000X-1.400000X0.500000X1.400000X-0.500000X1.400000X0*%
%ADD17RoundRect,0.250000X-0.337500X-0.475000X0.337500X-0.475000X0.337500X0.475000X-0.337500X0.475000X0*%
%ADD18R,1.050000X0.650000*%
%ADD19R,1.700000X1.700000*%
%ADD20C,1.700000*%
%ADD21RoundRect,0.250000X-0.350000X-0.450000X0.350000X-0.450000X0.350000X0.450000X-0.350000X0.450000X0*%
%ADD22RoundRect,0.250000X0.450000X-0.350000X0.450000X0.350000X-0.450000X0.350000X-0.450000X-0.350000X0*%
%ADD23RoundRect,0.250000X0.475000X-0.337500X0.475000X0.337500X-0.475000X0.337500X-0.475000X-0.337500X0*%
%ADD24RoundRect,0.250000X0.250000X-0.250000X0.250000X0.250000X-0.250000X0.250000X-0.250000X-0.250000X0*%
%ADD25RoundRect,0.225000X-0.375000X0.225000X-0.375000X-0.225000X0.375000X-0.225000X0.375000X0.225000X0*%
%ADD26RoundRect,0.250000X-0.475000X0.337500X-0.475000X-0.337500X0.475000X-0.337500X0.475000X0.337500X0*%
%ADD27R,1.500000X1.000000*%
%ADD28RoundRect,0.250000X-0.450000X0.350000X-0.450000X-0.350000X0.450000X-0.350000X0.450000X0.350000X0*%
%ADD29RoundRect,0.250000X0.337500X0.475000X-0.337500X0.475000X-0.337500X-0.475000X0.337500X-0.475000X0*%
%ADD30RoundRect,0.250000X0.450000X-0.325000X0.450000X0.325000X-0.450000X0.325000X-0.450000X-0.325000X0*%
%ADD31RoundRect,0.250000X-0.250000X0.250000X-0.250000X-0.250000X0.250000X-0.250000X0.250000X0.250000X0*%
%ADD32R,1.500000X0.900000*%
%ADD33R,0.900000X1.500000*%
%ADD34C,0.600000*%
%ADD35R,3.900000X3.900000*%
G04 APERTURE END LIST*
D10*
%TO.C,J1*%
X162510000Y-117300000D03*
X168290000Y-117300000D03*
D11*
X162150000Y-115855000D03*
X162950000Y-115855000D03*
D12*
X164150000Y-115855000D03*
X165150000Y-115855000D03*
X165650000Y-115855000D03*
X166650000Y-115855000D03*
D11*
X167850000Y-115855000D03*
X168650000Y-115855000D03*
X168650000Y-115855000D03*
X167850000Y-115855000D03*
D12*
X167150000Y-115855000D03*
X166150000Y-115855000D03*
X164650000Y-115855000D03*
X163650000Y-115855000D03*
D11*
X162950000Y-115855000D03*
X162150000Y-115855000D03*
D13*
X161080000Y-116770000D03*
D14*
X161080000Y-120950000D03*
D13*
X169720000Y-116770000D03*
D14*
X169720000Y-120950000D03*
%TD*%
D15*
%TO.C,U1*%
X152550000Y-99300000D03*
X152550000Y-101600000D03*
D16*
X158850000Y-101600000D03*
D15*
X152550000Y-103900000D03*
%TD*%
D17*
%TO.C,C2*%
X154262500Y-113100000D03*
X156337500Y-113100000D03*
%TD*%
D18*
%TO.C,SW2*%
X169125000Y-93625000D03*
X173275000Y-93625000D03*
X169125000Y-95775000D03*
X173275000Y-95775000D03*
%TD*%
D19*
%TO.C,J2*%
X177000000Y-111240000D03*
D20*
X177000000Y-108700000D03*
X177000000Y-106160000D03*
X177000000Y-103620000D03*
X177000000Y-101080000D03*
X177000000Y-98540000D03*
X177000000Y-96000000D03*
X177000000Y-93460000D03*
%TD*%
D21*
%TO.C,R6*%
X170300000Y-98500000D03*
X172300000Y-98500000D03*
%TD*%
D22*
%TO.C,R2*%
X162900000Y-112500000D03*
X162900000Y-110500000D03*
%TD*%
D23*
%TO.C,C10*%
X152900000Y-72875000D03*
X152900000Y-70800000D03*
%TD*%
D24*
%TO.C,D2*%
X172600000Y-119450000D03*
X172600000Y-116950000D03*
%TD*%
D25*
%TO.C,D1*%
X153400000Y-116250000D03*
X153400000Y-119550000D03*
%TD*%
D26*
%TO.C,C8*%
X156400000Y-92725000D03*
X156400000Y-94800000D03*
%TD*%
D27*
%TO.C,D6*%
X166500000Y-103200000D03*
X166500000Y-106400000D03*
X171400000Y-106400000D03*
X171400000Y-103200000D03*
%TD*%
D28*
%TO.C,R3*%
X169000000Y-110600000D03*
X169000000Y-112600000D03*
%TD*%
D29*
%TO.C,C7*%
X160537500Y-95400000D03*
X158462500Y-95400000D03*
%TD*%
D30*
%TO.C,D5*%
X162800000Y-104950000D03*
X162800000Y-102900000D03*
%TD*%
D26*
%TO.C,C4*%
X157600000Y-108862500D03*
X157600000Y-110937500D03*
%TD*%
D24*
%TO.C,D3*%
X176900000Y-119350000D03*
X176900000Y-116850000D03*
%TD*%
D21*
%TO.C,R5*%
X165600000Y-99100000D03*
X167600000Y-99100000D03*
%TD*%
D31*
%TO.C,D4*%
X157500000Y-116450000D03*
X157500000Y-118950000D03*
%TD*%
D28*
%TO.C,R4*%
X162700000Y-98900000D03*
X162700000Y-100900000D03*
%TD*%
D26*
%TO.C,C1*%
X153200000Y-84625000D03*
X153200000Y-86700000D03*
%TD*%
D23*
%TO.C,C5*%
X153200000Y-91537500D03*
X153200000Y-89462500D03*
%TD*%
%TO.C,C9*%
X153200000Y-77500000D03*
X153200000Y-75425000D03*
%TD*%
D18*
%TO.C,SW1*%
X162575000Y-93625000D03*
X166725000Y-93625000D03*
X162575000Y-95775000D03*
X166725000Y-95775000D03*
%TD*%
D28*
%TO.C,R1*%
X153200000Y-80400000D03*
X153200000Y-82400000D03*
%TD*%
D26*
%TO.C,C3*%
X153200000Y-108662500D03*
X153200000Y-110737500D03*
%TD*%
%TO.C,C6*%
X153200000Y-93700000D03*
X153200000Y-95775000D03*
%TD*%
D32*
%TO.C,U2*%
X156075000Y-71380000D03*
X156075000Y-72650000D03*
X156075000Y-73920000D03*
X156075000Y-75190000D03*
X156075000Y-76460000D03*
X156075000Y-77730000D03*
X156075000Y-79000000D03*
X156075000Y-80270000D03*
X156075000Y-81540000D03*
X156075000Y-82810000D03*
X156075000Y-84080000D03*
X156075000Y-85350000D03*
X156075000Y-86620000D03*
X156075000Y-87890000D03*
D33*
X157840000Y-89140000D03*
X159110000Y-89140000D03*
X160380000Y-89140000D03*
X161650000Y-89140000D03*
X162920000Y-89140000D03*
X164190000Y-89140000D03*
X165460000Y-89140000D03*
X166730000Y-89140000D03*
X168000000Y-89140000D03*
X169270000Y-89140000D03*
X170540000Y-89140000D03*
X171810000Y-89140000D03*
D32*
X173575000Y-87890000D03*
X173575000Y-86620000D03*
X173575000Y-85350000D03*
X173575000Y-84080000D03*
X173575000Y-82810000D03*
X173575000Y-81540000D03*
X173575000Y-80270000D03*
X173575000Y-79000000D03*
X173575000Y-77730000D03*
X173575000Y-76460000D03*
X173575000Y-75190000D03*
X173575000Y-73920000D03*
X173575000Y-72650000D03*
X173575000Y-71380000D03*
D34*
X161925000Y-78400000D03*
X161925000Y-79800000D03*
X162625000Y-77700000D03*
X162625000Y-79100000D03*
X162625000Y-80500000D03*
X163325000Y-78400000D03*
D35*
X163325000Y-79100000D03*
D34*
X163325000Y-79800000D03*
X164025000Y-77700000D03*
X164025000Y-79100000D03*
X164025000Y-80500000D03*
X164725000Y-78400000D03*
X164725000Y-79800000D03*
%TD*%
M02*
