%TF.GenerationSoftware,KiCad,Pcbnew,9.0.2*%
%TF.CreationDate,2026-08-30T12:36:06-05:00*%
%TF.ProjectId,DevBoard,44657642-6f61-4726-942e-6b696361645f,rev?*%
%TF.SameCoordinates,Original*%
%TF.FileFunction,Legend,Top*%
%TF.FilePolarity,Positive*%
%FSLAX46Y46*%
G04 Gerber Fmt 4.6, Leading zero omitted, Abs format (unit mm)*
G04 Created by KiCad (PCBNEW 9.0.2) date 2026-08-30 12:36:06*
%MOMM*%
%LPD*%
G01*
G04 APERTURE LIST*
%ADD10C,0.100000*%
%ADD11C,0.150000*%
%ADD12C,0.000000*%
%ADD13C,0.120000*%
G04 APERTURE END LIST*
D10*
X176607580Y-73126741D02*
X176655200Y-73031503D01*
X176655200Y-73031503D02*
X176750438Y-72983884D01*
X176750438Y-72983884D02*
X177607580Y-72983884D01*
X176655200Y-73888646D02*
X176607580Y-73793408D01*
X176607580Y-73793408D02*
X176607580Y-73602932D01*
X176607580Y-73602932D02*
X176655200Y-73507694D01*
X176655200Y-73507694D02*
X176750438Y-73460075D01*
X176750438Y-73460075D02*
X177131390Y-73460075D01*
X177131390Y-73460075D02*
X177226628Y-73507694D01*
X177226628Y-73507694D02*
X177274247Y-73602932D01*
X177274247Y-73602932D02*
X177274247Y-73793408D01*
X177274247Y-73793408D02*
X177226628Y-73888646D01*
X177226628Y-73888646D02*
X177131390Y-73936265D01*
X177131390Y-73936265D02*
X177036152Y-73936265D01*
X177036152Y-73936265D02*
X176940914Y-73460075D01*
X177274247Y-74221980D02*
X177274247Y-74602932D01*
X177607580Y-74364837D02*
X176750438Y-74364837D01*
X176750438Y-74364837D02*
X176655200Y-74412456D01*
X176655200Y-74412456D02*
X176607580Y-74507694D01*
X176607580Y-74507694D02*
X176607580Y-74602932D01*
X177607580Y-74983885D02*
X177417104Y-74888647D01*
X176655200Y-75364837D02*
X176607580Y-75460075D01*
X176607580Y-75460075D02*
X176607580Y-75650551D01*
X176607580Y-75650551D02*
X176655200Y-75745789D01*
X176655200Y-75745789D02*
X176750438Y-75793408D01*
X176750438Y-75793408D02*
X176798057Y-75793408D01*
X176798057Y-75793408D02*
X176893295Y-75745789D01*
X176893295Y-75745789D02*
X176940914Y-75650551D01*
X176940914Y-75650551D02*
X176940914Y-75507694D01*
X176940914Y-75507694D02*
X176988533Y-75412456D01*
X176988533Y-75412456D02*
X177083771Y-75364837D01*
X177083771Y-75364837D02*
X177131390Y-75364837D01*
X177131390Y-75364837D02*
X177226628Y-75412456D01*
X177226628Y-75412456D02*
X177274247Y-75507694D01*
X177274247Y-75507694D02*
X177274247Y-75650551D01*
X177274247Y-75650551D02*
X177226628Y-75745789D01*
X176607580Y-77412456D02*
X177131390Y-77412456D01*
X177131390Y-77412456D02*
X177226628Y-77364837D01*
X177226628Y-77364837D02*
X177274247Y-77269599D01*
X177274247Y-77269599D02*
X177274247Y-77079123D01*
X177274247Y-77079123D02*
X177226628Y-76983885D01*
X176655200Y-77412456D02*
X176607580Y-77317218D01*
X176607580Y-77317218D02*
X176607580Y-77079123D01*
X176607580Y-77079123D02*
X176655200Y-76983885D01*
X176655200Y-76983885D02*
X176750438Y-76936266D01*
X176750438Y-76936266D02*
X176845676Y-76936266D01*
X176845676Y-76936266D02*
X176940914Y-76983885D01*
X176940914Y-76983885D02*
X176988533Y-77079123D01*
X176988533Y-77079123D02*
X176988533Y-77317218D01*
X176988533Y-77317218D02*
X177036152Y-77412456D01*
X176607580Y-78031504D02*
X176655200Y-77936266D01*
X176655200Y-77936266D02*
X176750438Y-77888647D01*
X176750438Y-77888647D02*
X177607580Y-77888647D01*
X176607580Y-78555314D02*
X176655200Y-78460076D01*
X176655200Y-78460076D02*
X176750438Y-78412457D01*
X176750438Y-78412457D02*
X177607580Y-78412457D01*
X176607580Y-79841029D02*
X176655200Y-79745791D01*
X176655200Y-79745791D02*
X176750438Y-79698172D01*
X176750438Y-79698172D02*
X177607580Y-79698172D01*
X176607580Y-80364839D02*
X176655200Y-80269601D01*
X176655200Y-80269601D02*
X176702819Y-80221982D01*
X176702819Y-80221982D02*
X176798057Y-80174363D01*
X176798057Y-80174363D02*
X177083771Y-80174363D01*
X177083771Y-80174363D02*
X177179009Y-80221982D01*
X177179009Y-80221982D02*
X177226628Y-80269601D01*
X177226628Y-80269601D02*
X177274247Y-80364839D01*
X177274247Y-80364839D02*
X177274247Y-80507696D01*
X177274247Y-80507696D02*
X177226628Y-80602934D01*
X177226628Y-80602934D02*
X177179009Y-80650553D01*
X177179009Y-80650553D02*
X177083771Y-80698172D01*
X177083771Y-80698172D02*
X176798057Y-80698172D01*
X176798057Y-80698172D02*
X176702819Y-80650553D01*
X176702819Y-80650553D02*
X176655200Y-80602934D01*
X176655200Y-80602934D02*
X176607580Y-80507696D01*
X176607580Y-80507696D02*
X176607580Y-80364839D01*
X177274247Y-81031506D02*
X176607580Y-81269601D01*
X176607580Y-81269601D02*
X177274247Y-81507696D01*
X176655200Y-82269601D02*
X176607580Y-82174363D01*
X176607580Y-82174363D02*
X176607580Y-81983887D01*
X176607580Y-81983887D02*
X176655200Y-81888649D01*
X176655200Y-81888649D02*
X176750438Y-81841030D01*
X176750438Y-81841030D02*
X177131390Y-81841030D01*
X177131390Y-81841030D02*
X177226628Y-81888649D01*
X177226628Y-81888649D02*
X177274247Y-81983887D01*
X177274247Y-81983887D02*
X177274247Y-82174363D01*
X177274247Y-82174363D02*
X177226628Y-82269601D01*
X177226628Y-82269601D02*
X177131390Y-82317220D01*
X177131390Y-82317220D02*
X177036152Y-82317220D01*
X177036152Y-82317220D02*
X176940914Y-81841030D01*
X176607580Y-83650554D02*
X176655200Y-83555316D01*
X176655200Y-83555316D02*
X176750438Y-83507697D01*
X176750438Y-83507697D02*
X177607580Y-83507697D01*
X176607580Y-84460078D02*
X177131390Y-84460078D01*
X177131390Y-84460078D02*
X177226628Y-84412459D01*
X177226628Y-84412459D02*
X177274247Y-84317221D01*
X177274247Y-84317221D02*
X177274247Y-84126745D01*
X177274247Y-84126745D02*
X177226628Y-84031507D01*
X176655200Y-84460078D02*
X176607580Y-84364840D01*
X176607580Y-84364840D02*
X176607580Y-84126745D01*
X176607580Y-84126745D02*
X176655200Y-84031507D01*
X176655200Y-84031507D02*
X176750438Y-83983888D01*
X176750438Y-83983888D02*
X176845676Y-83983888D01*
X176845676Y-83983888D02*
X176940914Y-84031507D01*
X176940914Y-84031507D02*
X176988533Y-84126745D01*
X176988533Y-84126745D02*
X176988533Y-84364840D01*
X176988533Y-84364840D02*
X177036152Y-84460078D01*
X176607580Y-84936269D02*
X177274247Y-84936269D01*
X177607580Y-84936269D02*
X177559961Y-84888650D01*
X177559961Y-84888650D02*
X177512342Y-84936269D01*
X177512342Y-84936269D02*
X177559961Y-84983888D01*
X177559961Y-84983888D02*
X177607580Y-84936269D01*
X177607580Y-84936269D02*
X177512342Y-84936269D01*
X177274247Y-85412459D02*
X176607580Y-85412459D01*
X177179009Y-85412459D02*
X177226628Y-85460078D01*
X177226628Y-85460078D02*
X177274247Y-85555316D01*
X177274247Y-85555316D02*
X177274247Y-85698173D01*
X177274247Y-85698173D02*
X177226628Y-85793411D01*
X177226628Y-85793411D02*
X177131390Y-85841030D01*
X177131390Y-85841030D02*
X176607580Y-85841030D01*
X176702819Y-86317221D02*
X176655200Y-86364840D01*
X176655200Y-86364840D02*
X176607580Y-86317221D01*
X176607580Y-86317221D02*
X176655200Y-86269602D01*
X176655200Y-86269602D02*
X176702819Y-86317221D01*
X176702819Y-86317221D02*
X176607580Y-86317221D01*
D11*
X165066666Y-113709819D02*
X165066666Y-114424104D01*
X165066666Y-114424104D02*
X165019047Y-114566961D01*
X165019047Y-114566961D02*
X164923809Y-114662200D01*
X164923809Y-114662200D02*
X164780952Y-114709819D01*
X164780952Y-114709819D02*
X164685714Y-114709819D01*
X166066666Y-114709819D02*
X165495238Y-114709819D01*
X165780952Y-114709819D02*
X165780952Y-113709819D01*
X165780952Y-113709819D02*
X165685714Y-113852676D01*
X165685714Y-113852676D02*
X165590476Y-113947914D01*
X165590476Y-113947914D02*
X165495238Y-113995533D01*
X154938095Y-96554819D02*
X154938095Y-97364342D01*
X154938095Y-97364342D02*
X154985714Y-97459580D01*
X154985714Y-97459580D02*
X155033333Y-97507200D01*
X155033333Y-97507200D02*
X155128571Y-97554819D01*
X155128571Y-97554819D02*
X155319047Y-97554819D01*
X155319047Y-97554819D02*
X155414285Y-97507200D01*
X155414285Y-97507200D02*
X155461904Y-97459580D01*
X155461904Y-97459580D02*
X155509523Y-97364342D01*
X155509523Y-97364342D02*
X155509523Y-96554819D01*
X156509523Y-97554819D02*
X155938095Y-97554819D01*
X156223809Y-97554819D02*
X156223809Y-96554819D01*
X156223809Y-96554819D02*
X156128571Y-96697676D01*
X156128571Y-96697676D02*
X156033333Y-96792914D01*
X156033333Y-96792914D02*
X155938095Y-96840533D01*
X155133333Y-111779580D02*
X155085714Y-111827200D01*
X155085714Y-111827200D02*
X154942857Y-111874819D01*
X154942857Y-111874819D02*
X154847619Y-111874819D01*
X154847619Y-111874819D02*
X154704762Y-111827200D01*
X154704762Y-111827200D02*
X154609524Y-111731961D01*
X154609524Y-111731961D02*
X154561905Y-111636723D01*
X154561905Y-111636723D02*
X154514286Y-111446247D01*
X154514286Y-111446247D02*
X154514286Y-111303390D01*
X154514286Y-111303390D02*
X154561905Y-111112914D01*
X154561905Y-111112914D02*
X154609524Y-111017676D01*
X154609524Y-111017676D02*
X154704762Y-110922438D01*
X154704762Y-110922438D02*
X154847619Y-110874819D01*
X154847619Y-110874819D02*
X154942857Y-110874819D01*
X154942857Y-110874819D02*
X155085714Y-110922438D01*
X155085714Y-110922438D02*
X155133333Y-110970057D01*
X155514286Y-110970057D02*
X155561905Y-110922438D01*
X155561905Y-110922438D02*
X155657143Y-110874819D01*
X155657143Y-110874819D02*
X155895238Y-110874819D01*
X155895238Y-110874819D02*
X155990476Y-110922438D01*
X155990476Y-110922438D02*
X156038095Y-110970057D01*
X156038095Y-110970057D02*
X156085714Y-111065295D01*
X156085714Y-111065295D02*
X156085714Y-111160533D01*
X156085714Y-111160533D02*
X156038095Y-111303390D01*
X156038095Y-111303390D02*
X155466667Y-111874819D01*
X155466667Y-111874819D02*
X156085714Y-111874819D01*
X169866667Y-92507200D02*
X170009524Y-92554819D01*
X170009524Y-92554819D02*
X170247619Y-92554819D01*
X170247619Y-92554819D02*
X170342857Y-92507200D01*
X170342857Y-92507200D02*
X170390476Y-92459580D01*
X170390476Y-92459580D02*
X170438095Y-92364342D01*
X170438095Y-92364342D02*
X170438095Y-92269104D01*
X170438095Y-92269104D02*
X170390476Y-92173866D01*
X170390476Y-92173866D02*
X170342857Y-92126247D01*
X170342857Y-92126247D02*
X170247619Y-92078628D01*
X170247619Y-92078628D02*
X170057143Y-92031009D01*
X170057143Y-92031009D02*
X169961905Y-91983390D01*
X169961905Y-91983390D02*
X169914286Y-91935771D01*
X169914286Y-91935771D02*
X169866667Y-91840533D01*
X169866667Y-91840533D02*
X169866667Y-91745295D01*
X169866667Y-91745295D02*
X169914286Y-91650057D01*
X169914286Y-91650057D02*
X169961905Y-91602438D01*
X169961905Y-91602438D02*
X170057143Y-91554819D01*
X170057143Y-91554819D02*
X170295238Y-91554819D01*
X170295238Y-91554819D02*
X170438095Y-91602438D01*
X170771429Y-91554819D02*
X171009524Y-92554819D01*
X171009524Y-92554819D02*
X171200000Y-91840533D01*
X171200000Y-91840533D02*
X171390476Y-92554819D01*
X171390476Y-92554819D02*
X171628572Y-91554819D01*
X171961905Y-91650057D02*
X172009524Y-91602438D01*
X172009524Y-91602438D02*
X172104762Y-91554819D01*
X172104762Y-91554819D02*
X172342857Y-91554819D01*
X172342857Y-91554819D02*
X172438095Y-91602438D01*
X172438095Y-91602438D02*
X172485714Y-91650057D01*
X172485714Y-91650057D02*
X172533333Y-91745295D01*
X172533333Y-91745295D02*
X172533333Y-91840533D01*
X172533333Y-91840533D02*
X172485714Y-91983390D01*
X172485714Y-91983390D02*
X171914286Y-92554819D01*
X171914286Y-92554819D02*
X172533333Y-92554819D01*
X176666666Y-113464819D02*
X176666666Y-114179104D01*
X176666666Y-114179104D02*
X176619047Y-114321961D01*
X176619047Y-114321961D02*
X176523809Y-114417200D01*
X176523809Y-114417200D02*
X176380952Y-114464819D01*
X176380952Y-114464819D02*
X176285714Y-114464819D01*
X177095238Y-113560057D02*
X177142857Y-113512438D01*
X177142857Y-113512438D02*
X177238095Y-113464819D01*
X177238095Y-113464819D02*
X177476190Y-113464819D01*
X177476190Y-113464819D02*
X177571428Y-113512438D01*
X177571428Y-113512438D02*
X177619047Y-113560057D01*
X177619047Y-113560057D02*
X177666666Y-113655295D01*
X177666666Y-113655295D02*
X177666666Y-113750533D01*
X177666666Y-113750533D02*
X177619047Y-113893390D01*
X177619047Y-113893390D02*
X177047619Y-114464819D01*
X177047619Y-114464819D02*
X177666666Y-114464819D01*
X171133333Y-97304819D02*
X170800000Y-96828628D01*
X170561905Y-97304819D02*
X170561905Y-96304819D01*
X170561905Y-96304819D02*
X170942857Y-96304819D01*
X170942857Y-96304819D02*
X171038095Y-96352438D01*
X171038095Y-96352438D02*
X171085714Y-96400057D01*
X171085714Y-96400057D02*
X171133333Y-96495295D01*
X171133333Y-96495295D02*
X171133333Y-96638152D01*
X171133333Y-96638152D02*
X171085714Y-96733390D01*
X171085714Y-96733390D02*
X171038095Y-96781009D01*
X171038095Y-96781009D02*
X170942857Y-96828628D01*
X170942857Y-96828628D02*
X170561905Y-96828628D01*
X171990476Y-96304819D02*
X171800000Y-96304819D01*
X171800000Y-96304819D02*
X171704762Y-96352438D01*
X171704762Y-96352438D02*
X171657143Y-96400057D01*
X171657143Y-96400057D02*
X171561905Y-96542914D01*
X171561905Y-96542914D02*
X171514286Y-96733390D01*
X171514286Y-96733390D02*
X171514286Y-97114342D01*
X171514286Y-97114342D02*
X171561905Y-97209580D01*
X171561905Y-97209580D02*
X171609524Y-97257200D01*
X171609524Y-97257200D02*
X171704762Y-97304819D01*
X171704762Y-97304819D02*
X171895238Y-97304819D01*
X171895238Y-97304819D02*
X171990476Y-97257200D01*
X171990476Y-97257200D02*
X172038095Y-97209580D01*
X172038095Y-97209580D02*
X172085714Y-97114342D01*
X172085714Y-97114342D02*
X172085714Y-96876247D01*
X172085714Y-96876247D02*
X172038095Y-96781009D01*
X172038095Y-96781009D02*
X171990476Y-96733390D01*
X171990476Y-96733390D02*
X171895238Y-96685771D01*
X171895238Y-96685771D02*
X171704762Y-96685771D01*
X171704762Y-96685771D02*
X171609524Y-96733390D01*
X171609524Y-96733390D02*
X171561905Y-96781009D01*
X171561905Y-96781009D02*
X171514286Y-96876247D01*
X161704819Y-111666666D02*
X161228628Y-111999999D01*
X161704819Y-112238094D02*
X160704819Y-112238094D01*
X160704819Y-112238094D02*
X160704819Y-111857142D01*
X160704819Y-111857142D02*
X160752438Y-111761904D01*
X160752438Y-111761904D02*
X160800057Y-111714285D01*
X160800057Y-111714285D02*
X160895295Y-111666666D01*
X160895295Y-111666666D02*
X161038152Y-111666666D01*
X161038152Y-111666666D02*
X161133390Y-111714285D01*
X161133390Y-111714285D02*
X161181009Y-111761904D01*
X161181009Y-111761904D02*
X161228628Y-111857142D01*
X161228628Y-111857142D02*
X161228628Y-112238094D01*
X160800057Y-111285713D02*
X160752438Y-111238094D01*
X160752438Y-111238094D02*
X160704819Y-111142856D01*
X160704819Y-111142856D02*
X160704819Y-110904761D01*
X160704819Y-110904761D02*
X160752438Y-110809523D01*
X160752438Y-110809523D02*
X160800057Y-110761904D01*
X160800057Y-110761904D02*
X160895295Y-110714285D01*
X160895295Y-110714285D02*
X160990533Y-110714285D01*
X160990533Y-110714285D02*
X161133390Y-110761904D01*
X161133390Y-110761904D02*
X161704819Y-111333332D01*
X161704819Y-111333332D02*
X161704819Y-110714285D01*
X151579580Y-72480357D02*
X151627200Y-72527976D01*
X151627200Y-72527976D02*
X151674819Y-72670833D01*
X151674819Y-72670833D02*
X151674819Y-72766071D01*
X151674819Y-72766071D02*
X151627200Y-72908928D01*
X151627200Y-72908928D02*
X151531961Y-73004166D01*
X151531961Y-73004166D02*
X151436723Y-73051785D01*
X151436723Y-73051785D02*
X151246247Y-73099404D01*
X151246247Y-73099404D02*
X151103390Y-73099404D01*
X151103390Y-73099404D02*
X150912914Y-73051785D01*
X150912914Y-73051785D02*
X150817676Y-73004166D01*
X150817676Y-73004166D02*
X150722438Y-72908928D01*
X150722438Y-72908928D02*
X150674819Y-72766071D01*
X150674819Y-72766071D02*
X150674819Y-72670833D01*
X150674819Y-72670833D02*
X150722438Y-72527976D01*
X150722438Y-72527976D02*
X150770057Y-72480357D01*
X151674819Y-71527976D02*
X151674819Y-72099404D01*
X151674819Y-71813690D02*
X150674819Y-71813690D01*
X150674819Y-71813690D02*
X150817676Y-71908928D01*
X150817676Y-71908928D02*
X150912914Y-72004166D01*
X150912914Y-72004166D02*
X150960533Y-72099404D01*
X150674819Y-70908928D02*
X150674819Y-70813690D01*
X150674819Y-70813690D02*
X150722438Y-70718452D01*
X150722438Y-70718452D02*
X150770057Y-70670833D01*
X150770057Y-70670833D02*
X150865295Y-70623214D01*
X150865295Y-70623214D02*
X151055771Y-70575595D01*
X151055771Y-70575595D02*
X151293866Y-70575595D01*
X151293866Y-70575595D02*
X151484342Y-70623214D01*
X151484342Y-70623214D02*
X151579580Y-70670833D01*
X151579580Y-70670833D02*
X151627200Y-70718452D01*
X151627200Y-70718452D02*
X151674819Y-70813690D01*
X151674819Y-70813690D02*
X151674819Y-70908928D01*
X151674819Y-70908928D02*
X151627200Y-71004166D01*
X151627200Y-71004166D02*
X151579580Y-71051785D01*
X151579580Y-71051785D02*
X151484342Y-71099404D01*
X151484342Y-71099404D02*
X151293866Y-71147023D01*
X151293866Y-71147023D02*
X151055771Y-71147023D01*
X151055771Y-71147023D02*
X150865295Y-71099404D01*
X150865295Y-71099404D02*
X150770057Y-71051785D01*
X150770057Y-71051785D02*
X150722438Y-71004166D01*
X150722438Y-71004166D02*
X150674819Y-70908928D01*
X171204819Y-118938094D02*
X170204819Y-118938094D01*
X170204819Y-118938094D02*
X170204819Y-118699999D01*
X170204819Y-118699999D02*
X170252438Y-118557142D01*
X170252438Y-118557142D02*
X170347676Y-118461904D01*
X170347676Y-118461904D02*
X170442914Y-118414285D01*
X170442914Y-118414285D02*
X170633390Y-118366666D01*
X170633390Y-118366666D02*
X170776247Y-118366666D01*
X170776247Y-118366666D02*
X170966723Y-118414285D01*
X170966723Y-118414285D02*
X171061961Y-118461904D01*
X171061961Y-118461904D02*
X171157200Y-118557142D01*
X171157200Y-118557142D02*
X171204819Y-118699999D01*
X171204819Y-118699999D02*
X171204819Y-118938094D01*
X170300057Y-117985713D02*
X170252438Y-117938094D01*
X170252438Y-117938094D02*
X170204819Y-117842856D01*
X170204819Y-117842856D02*
X170204819Y-117604761D01*
X170204819Y-117604761D02*
X170252438Y-117509523D01*
X170252438Y-117509523D02*
X170300057Y-117461904D01*
X170300057Y-117461904D02*
X170395295Y-117414285D01*
X170395295Y-117414285D02*
X170490533Y-117414285D01*
X170490533Y-117414285D02*
X170633390Y-117461904D01*
X170633390Y-117461904D02*
X171204819Y-118033332D01*
X171204819Y-118033332D02*
X171204819Y-117414285D01*
X155854819Y-118638094D02*
X154854819Y-118638094D01*
X154854819Y-118638094D02*
X154854819Y-118399999D01*
X154854819Y-118399999D02*
X154902438Y-118257142D01*
X154902438Y-118257142D02*
X154997676Y-118161904D01*
X154997676Y-118161904D02*
X155092914Y-118114285D01*
X155092914Y-118114285D02*
X155283390Y-118066666D01*
X155283390Y-118066666D02*
X155426247Y-118066666D01*
X155426247Y-118066666D02*
X155616723Y-118114285D01*
X155616723Y-118114285D02*
X155711961Y-118161904D01*
X155711961Y-118161904D02*
X155807200Y-118257142D01*
X155807200Y-118257142D02*
X155854819Y-118399999D01*
X155854819Y-118399999D02*
X155854819Y-118638094D01*
X155854819Y-117114285D02*
X155854819Y-117685713D01*
X155854819Y-117399999D02*
X154854819Y-117399999D01*
X154854819Y-117399999D02*
X154997676Y-117495237D01*
X154997676Y-117495237D02*
X155092914Y-117590475D01*
X155092914Y-117590475D02*
X155140533Y-117685713D01*
X158439580Y-93929166D02*
X158487200Y-93976785D01*
X158487200Y-93976785D02*
X158534819Y-94119642D01*
X158534819Y-94119642D02*
X158534819Y-94214880D01*
X158534819Y-94214880D02*
X158487200Y-94357737D01*
X158487200Y-94357737D02*
X158391961Y-94452975D01*
X158391961Y-94452975D02*
X158296723Y-94500594D01*
X158296723Y-94500594D02*
X158106247Y-94548213D01*
X158106247Y-94548213D02*
X157963390Y-94548213D01*
X157963390Y-94548213D02*
X157772914Y-94500594D01*
X157772914Y-94500594D02*
X157677676Y-94452975D01*
X157677676Y-94452975D02*
X157582438Y-94357737D01*
X157582438Y-94357737D02*
X157534819Y-94214880D01*
X157534819Y-94214880D02*
X157534819Y-94119642D01*
X157534819Y-94119642D02*
X157582438Y-93976785D01*
X157582438Y-93976785D02*
X157630057Y-93929166D01*
X157963390Y-93357737D02*
X157915771Y-93452975D01*
X157915771Y-93452975D02*
X157868152Y-93500594D01*
X157868152Y-93500594D02*
X157772914Y-93548213D01*
X157772914Y-93548213D02*
X157725295Y-93548213D01*
X157725295Y-93548213D02*
X157630057Y-93500594D01*
X157630057Y-93500594D02*
X157582438Y-93452975D01*
X157582438Y-93452975D02*
X157534819Y-93357737D01*
X157534819Y-93357737D02*
X157534819Y-93167261D01*
X157534819Y-93167261D02*
X157582438Y-93072023D01*
X157582438Y-93072023D02*
X157630057Y-93024404D01*
X157630057Y-93024404D02*
X157725295Y-92976785D01*
X157725295Y-92976785D02*
X157772914Y-92976785D01*
X157772914Y-92976785D02*
X157868152Y-93024404D01*
X157868152Y-93024404D02*
X157915771Y-93072023D01*
X157915771Y-93072023D02*
X157963390Y-93167261D01*
X157963390Y-93167261D02*
X157963390Y-93357737D01*
X157963390Y-93357737D02*
X158011009Y-93452975D01*
X158011009Y-93452975D02*
X158058628Y-93500594D01*
X158058628Y-93500594D02*
X158153866Y-93548213D01*
X158153866Y-93548213D02*
X158344342Y-93548213D01*
X158344342Y-93548213D02*
X158439580Y-93500594D01*
X158439580Y-93500594D02*
X158487200Y-93452975D01*
X158487200Y-93452975D02*
X158534819Y-93357737D01*
X158534819Y-93357737D02*
X158534819Y-93167261D01*
X158534819Y-93167261D02*
X158487200Y-93072023D01*
X158487200Y-93072023D02*
X158439580Y-93024404D01*
X158439580Y-93024404D02*
X158344342Y-92976785D01*
X158344342Y-92976785D02*
X158153866Y-92976785D01*
X158153866Y-92976785D02*
X158058628Y-93024404D01*
X158058628Y-93024404D02*
X158011009Y-93072023D01*
X158011009Y-93072023D02*
X157963390Y-93167261D01*
X168211905Y-101754819D02*
X168211905Y-100754819D01*
X168211905Y-100754819D02*
X168450000Y-100754819D01*
X168450000Y-100754819D02*
X168592857Y-100802438D01*
X168592857Y-100802438D02*
X168688095Y-100897676D01*
X168688095Y-100897676D02*
X168735714Y-100992914D01*
X168735714Y-100992914D02*
X168783333Y-101183390D01*
X168783333Y-101183390D02*
X168783333Y-101326247D01*
X168783333Y-101326247D02*
X168735714Y-101516723D01*
X168735714Y-101516723D02*
X168688095Y-101611961D01*
X168688095Y-101611961D02*
X168592857Y-101707200D01*
X168592857Y-101707200D02*
X168450000Y-101754819D01*
X168450000Y-101754819D02*
X168211905Y-101754819D01*
X169640476Y-100754819D02*
X169450000Y-100754819D01*
X169450000Y-100754819D02*
X169354762Y-100802438D01*
X169354762Y-100802438D02*
X169307143Y-100850057D01*
X169307143Y-100850057D02*
X169211905Y-100992914D01*
X169211905Y-100992914D02*
X169164286Y-101183390D01*
X169164286Y-101183390D02*
X169164286Y-101564342D01*
X169164286Y-101564342D02*
X169211905Y-101659580D01*
X169211905Y-101659580D02*
X169259524Y-101707200D01*
X169259524Y-101707200D02*
X169354762Y-101754819D01*
X169354762Y-101754819D02*
X169545238Y-101754819D01*
X169545238Y-101754819D02*
X169640476Y-101707200D01*
X169640476Y-101707200D02*
X169688095Y-101659580D01*
X169688095Y-101659580D02*
X169735714Y-101564342D01*
X169735714Y-101564342D02*
X169735714Y-101326247D01*
X169735714Y-101326247D02*
X169688095Y-101231009D01*
X169688095Y-101231009D02*
X169640476Y-101183390D01*
X169640476Y-101183390D02*
X169545238Y-101135771D01*
X169545238Y-101135771D02*
X169354762Y-101135771D01*
X169354762Y-101135771D02*
X169259524Y-101183390D01*
X169259524Y-101183390D02*
X169211905Y-101231009D01*
X169211905Y-101231009D02*
X169164286Y-101326247D01*
X171104819Y-111766666D02*
X170628628Y-112099999D01*
X171104819Y-112338094D02*
X170104819Y-112338094D01*
X170104819Y-112338094D02*
X170104819Y-111957142D01*
X170104819Y-111957142D02*
X170152438Y-111861904D01*
X170152438Y-111861904D02*
X170200057Y-111814285D01*
X170200057Y-111814285D02*
X170295295Y-111766666D01*
X170295295Y-111766666D02*
X170438152Y-111766666D01*
X170438152Y-111766666D02*
X170533390Y-111814285D01*
X170533390Y-111814285D02*
X170581009Y-111861904D01*
X170581009Y-111861904D02*
X170628628Y-111957142D01*
X170628628Y-111957142D02*
X170628628Y-112338094D01*
X170104819Y-111433332D02*
X170104819Y-110814285D01*
X170104819Y-110814285D02*
X170485771Y-111147618D01*
X170485771Y-111147618D02*
X170485771Y-111004761D01*
X170485771Y-111004761D02*
X170533390Y-110909523D01*
X170533390Y-110909523D02*
X170581009Y-110861904D01*
X170581009Y-110861904D02*
X170676247Y-110814285D01*
X170676247Y-110814285D02*
X170914342Y-110814285D01*
X170914342Y-110814285D02*
X171009580Y-110861904D01*
X171009580Y-110861904D02*
X171057200Y-110909523D01*
X171057200Y-110909523D02*
X171104819Y-111004761D01*
X171104819Y-111004761D02*
X171104819Y-111290475D01*
X171104819Y-111290475D02*
X171057200Y-111385713D01*
X171057200Y-111385713D02*
X171009580Y-111433332D01*
X159333333Y-97439580D02*
X159285714Y-97487200D01*
X159285714Y-97487200D02*
X159142857Y-97534819D01*
X159142857Y-97534819D02*
X159047619Y-97534819D01*
X159047619Y-97534819D02*
X158904762Y-97487200D01*
X158904762Y-97487200D02*
X158809524Y-97391961D01*
X158809524Y-97391961D02*
X158761905Y-97296723D01*
X158761905Y-97296723D02*
X158714286Y-97106247D01*
X158714286Y-97106247D02*
X158714286Y-96963390D01*
X158714286Y-96963390D02*
X158761905Y-96772914D01*
X158761905Y-96772914D02*
X158809524Y-96677676D01*
X158809524Y-96677676D02*
X158904762Y-96582438D01*
X158904762Y-96582438D02*
X159047619Y-96534819D01*
X159047619Y-96534819D02*
X159142857Y-96534819D01*
X159142857Y-96534819D02*
X159285714Y-96582438D01*
X159285714Y-96582438D02*
X159333333Y-96630057D01*
X159666667Y-96534819D02*
X160333333Y-96534819D01*
X160333333Y-96534819D02*
X159904762Y-97534819D01*
X161604819Y-104663094D02*
X160604819Y-104663094D01*
X160604819Y-104663094D02*
X160604819Y-104424999D01*
X160604819Y-104424999D02*
X160652438Y-104282142D01*
X160652438Y-104282142D02*
X160747676Y-104186904D01*
X160747676Y-104186904D02*
X160842914Y-104139285D01*
X160842914Y-104139285D02*
X161033390Y-104091666D01*
X161033390Y-104091666D02*
X161176247Y-104091666D01*
X161176247Y-104091666D02*
X161366723Y-104139285D01*
X161366723Y-104139285D02*
X161461961Y-104186904D01*
X161461961Y-104186904D02*
X161557200Y-104282142D01*
X161557200Y-104282142D02*
X161604819Y-104424999D01*
X161604819Y-104424999D02*
X161604819Y-104663094D01*
X160604819Y-103186904D02*
X160604819Y-103663094D01*
X160604819Y-103663094D02*
X161081009Y-103710713D01*
X161081009Y-103710713D02*
X161033390Y-103663094D01*
X161033390Y-103663094D02*
X160985771Y-103567856D01*
X160985771Y-103567856D02*
X160985771Y-103329761D01*
X160985771Y-103329761D02*
X161033390Y-103234523D01*
X161033390Y-103234523D02*
X161081009Y-103186904D01*
X161081009Y-103186904D02*
X161176247Y-103139285D01*
X161176247Y-103139285D02*
X161414342Y-103139285D01*
X161414342Y-103139285D02*
X161509580Y-103186904D01*
X161509580Y-103186904D02*
X161557200Y-103234523D01*
X161557200Y-103234523D02*
X161604819Y-103329761D01*
X161604819Y-103329761D02*
X161604819Y-103567856D01*
X161604819Y-103567856D02*
X161557200Y-103663094D01*
X161557200Y-103663094D02*
X161509580Y-103710713D01*
X159639580Y-110066666D02*
X159687200Y-110114285D01*
X159687200Y-110114285D02*
X159734819Y-110257142D01*
X159734819Y-110257142D02*
X159734819Y-110352380D01*
X159734819Y-110352380D02*
X159687200Y-110495237D01*
X159687200Y-110495237D02*
X159591961Y-110590475D01*
X159591961Y-110590475D02*
X159496723Y-110638094D01*
X159496723Y-110638094D02*
X159306247Y-110685713D01*
X159306247Y-110685713D02*
X159163390Y-110685713D01*
X159163390Y-110685713D02*
X158972914Y-110638094D01*
X158972914Y-110638094D02*
X158877676Y-110590475D01*
X158877676Y-110590475D02*
X158782438Y-110495237D01*
X158782438Y-110495237D02*
X158734819Y-110352380D01*
X158734819Y-110352380D02*
X158734819Y-110257142D01*
X158734819Y-110257142D02*
X158782438Y-110114285D01*
X158782438Y-110114285D02*
X158830057Y-110066666D01*
X159068152Y-109209523D02*
X159734819Y-109209523D01*
X158687200Y-109447618D02*
X159401485Y-109685713D01*
X159401485Y-109685713D02*
X159401485Y-109066666D01*
X175504819Y-118838094D02*
X174504819Y-118838094D01*
X174504819Y-118838094D02*
X174504819Y-118599999D01*
X174504819Y-118599999D02*
X174552438Y-118457142D01*
X174552438Y-118457142D02*
X174647676Y-118361904D01*
X174647676Y-118361904D02*
X174742914Y-118314285D01*
X174742914Y-118314285D02*
X174933390Y-118266666D01*
X174933390Y-118266666D02*
X175076247Y-118266666D01*
X175076247Y-118266666D02*
X175266723Y-118314285D01*
X175266723Y-118314285D02*
X175361961Y-118361904D01*
X175361961Y-118361904D02*
X175457200Y-118457142D01*
X175457200Y-118457142D02*
X175504819Y-118599999D01*
X175504819Y-118599999D02*
X175504819Y-118838094D01*
X174504819Y-117933332D02*
X174504819Y-117314285D01*
X174504819Y-117314285D02*
X174885771Y-117647618D01*
X174885771Y-117647618D02*
X174885771Y-117504761D01*
X174885771Y-117504761D02*
X174933390Y-117409523D01*
X174933390Y-117409523D02*
X174981009Y-117361904D01*
X174981009Y-117361904D02*
X175076247Y-117314285D01*
X175076247Y-117314285D02*
X175314342Y-117314285D01*
X175314342Y-117314285D02*
X175409580Y-117361904D01*
X175409580Y-117361904D02*
X175457200Y-117409523D01*
X175457200Y-117409523D02*
X175504819Y-117504761D01*
X175504819Y-117504761D02*
X175504819Y-117790475D01*
X175504819Y-117790475D02*
X175457200Y-117885713D01*
X175457200Y-117885713D02*
X175409580Y-117933332D01*
X166433333Y-97904819D02*
X166100000Y-97428628D01*
X165861905Y-97904819D02*
X165861905Y-96904819D01*
X165861905Y-96904819D02*
X166242857Y-96904819D01*
X166242857Y-96904819D02*
X166338095Y-96952438D01*
X166338095Y-96952438D02*
X166385714Y-97000057D01*
X166385714Y-97000057D02*
X166433333Y-97095295D01*
X166433333Y-97095295D02*
X166433333Y-97238152D01*
X166433333Y-97238152D02*
X166385714Y-97333390D01*
X166385714Y-97333390D02*
X166338095Y-97381009D01*
X166338095Y-97381009D02*
X166242857Y-97428628D01*
X166242857Y-97428628D02*
X165861905Y-97428628D01*
X167338095Y-96904819D02*
X166861905Y-96904819D01*
X166861905Y-96904819D02*
X166814286Y-97381009D01*
X166814286Y-97381009D02*
X166861905Y-97333390D01*
X166861905Y-97333390D02*
X166957143Y-97285771D01*
X166957143Y-97285771D02*
X167195238Y-97285771D01*
X167195238Y-97285771D02*
X167290476Y-97333390D01*
X167290476Y-97333390D02*
X167338095Y-97381009D01*
X167338095Y-97381009D02*
X167385714Y-97476247D01*
X167385714Y-97476247D02*
X167385714Y-97714342D01*
X167385714Y-97714342D02*
X167338095Y-97809580D01*
X167338095Y-97809580D02*
X167290476Y-97857200D01*
X167290476Y-97857200D02*
X167195238Y-97904819D01*
X167195238Y-97904819D02*
X166957143Y-97904819D01*
X166957143Y-97904819D02*
X166861905Y-97857200D01*
X166861905Y-97857200D02*
X166814286Y-97809580D01*
X159804819Y-118438094D02*
X158804819Y-118438094D01*
X158804819Y-118438094D02*
X158804819Y-118199999D01*
X158804819Y-118199999D02*
X158852438Y-118057142D01*
X158852438Y-118057142D02*
X158947676Y-117961904D01*
X158947676Y-117961904D02*
X159042914Y-117914285D01*
X159042914Y-117914285D02*
X159233390Y-117866666D01*
X159233390Y-117866666D02*
X159376247Y-117866666D01*
X159376247Y-117866666D02*
X159566723Y-117914285D01*
X159566723Y-117914285D02*
X159661961Y-117961904D01*
X159661961Y-117961904D02*
X159757200Y-118057142D01*
X159757200Y-118057142D02*
X159804819Y-118199999D01*
X159804819Y-118199999D02*
X159804819Y-118438094D01*
X159138152Y-117009523D02*
X159804819Y-117009523D01*
X158757200Y-117247618D02*
X159471485Y-117485713D01*
X159471485Y-117485713D02*
X159471485Y-116866666D01*
X164804819Y-100066666D02*
X164328628Y-100399999D01*
X164804819Y-100638094D02*
X163804819Y-100638094D01*
X163804819Y-100638094D02*
X163804819Y-100257142D01*
X163804819Y-100257142D02*
X163852438Y-100161904D01*
X163852438Y-100161904D02*
X163900057Y-100114285D01*
X163900057Y-100114285D02*
X163995295Y-100066666D01*
X163995295Y-100066666D02*
X164138152Y-100066666D01*
X164138152Y-100066666D02*
X164233390Y-100114285D01*
X164233390Y-100114285D02*
X164281009Y-100161904D01*
X164281009Y-100161904D02*
X164328628Y-100257142D01*
X164328628Y-100257142D02*
X164328628Y-100638094D01*
X164138152Y-99209523D02*
X164804819Y-99209523D01*
X163757200Y-99447618D02*
X164471485Y-99685713D01*
X164471485Y-99685713D02*
X164471485Y-99066666D01*
X151759580Y-85829166D02*
X151807200Y-85876785D01*
X151807200Y-85876785D02*
X151854819Y-86019642D01*
X151854819Y-86019642D02*
X151854819Y-86114880D01*
X151854819Y-86114880D02*
X151807200Y-86257737D01*
X151807200Y-86257737D02*
X151711961Y-86352975D01*
X151711961Y-86352975D02*
X151616723Y-86400594D01*
X151616723Y-86400594D02*
X151426247Y-86448213D01*
X151426247Y-86448213D02*
X151283390Y-86448213D01*
X151283390Y-86448213D02*
X151092914Y-86400594D01*
X151092914Y-86400594D02*
X150997676Y-86352975D01*
X150997676Y-86352975D02*
X150902438Y-86257737D01*
X150902438Y-86257737D02*
X150854819Y-86114880D01*
X150854819Y-86114880D02*
X150854819Y-86019642D01*
X150854819Y-86019642D02*
X150902438Y-85876785D01*
X150902438Y-85876785D02*
X150950057Y-85829166D01*
X151854819Y-84876785D02*
X151854819Y-85448213D01*
X151854819Y-85162499D02*
X150854819Y-85162499D01*
X150854819Y-85162499D02*
X150997676Y-85257737D01*
X150997676Y-85257737D02*
X151092914Y-85352975D01*
X151092914Y-85352975D02*
X151140533Y-85448213D01*
X151879580Y-90666666D02*
X151927200Y-90714285D01*
X151927200Y-90714285D02*
X151974819Y-90857142D01*
X151974819Y-90857142D02*
X151974819Y-90952380D01*
X151974819Y-90952380D02*
X151927200Y-91095237D01*
X151927200Y-91095237D02*
X151831961Y-91190475D01*
X151831961Y-91190475D02*
X151736723Y-91238094D01*
X151736723Y-91238094D02*
X151546247Y-91285713D01*
X151546247Y-91285713D02*
X151403390Y-91285713D01*
X151403390Y-91285713D02*
X151212914Y-91238094D01*
X151212914Y-91238094D02*
X151117676Y-91190475D01*
X151117676Y-91190475D02*
X151022438Y-91095237D01*
X151022438Y-91095237D02*
X150974819Y-90952380D01*
X150974819Y-90952380D02*
X150974819Y-90857142D01*
X150974819Y-90857142D02*
X151022438Y-90714285D01*
X151022438Y-90714285D02*
X151070057Y-90666666D01*
X150974819Y-89761904D02*
X150974819Y-90238094D01*
X150974819Y-90238094D02*
X151451009Y-90285713D01*
X151451009Y-90285713D02*
X151403390Y-90238094D01*
X151403390Y-90238094D02*
X151355771Y-90142856D01*
X151355771Y-90142856D02*
X151355771Y-89904761D01*
X151355771Y-89904761D02*
X151403390Y-89809523D01*
X151403390Y-89809523D02*
X151451009Y-89761904D01*
X151451009Y-89761904D02*
X151546247Y-89714285D01*
X151546247Y-89714285D02*
X151784342Y-89714285D01*
X151784342Y-89714285D02*
X151879580Y-89761904D01*
X151879580Y-89761904D02*
X151927200Y-89809523D01*
X151927200Y-89809523D02*
X151974819Y-89904761D01*
X151974819Y-89904761D02*
X151974819Y-90142856D01*
X151974819Y-90142856D02*
X151927200Y-90238094D01*
X151927200Y-90238094D02*
X151879580Y-90285713D01*
X151879580Y-76629166D02*
X151927200Y-76676785D01*
X151927200Y-76676785D02*
X151974819Y-76819642D01*
X151974819Y-76819642D02*
X151974819Y-76914880D01*
X151974819Y-76914880D02*
X151927200Y-77057737D01*
X151927200Y-77057737D02*
X151831961Y-77152975D01*
X151831961Y-77152975D02*
X151736723Y-77200594D01*
X151736723Y-77200594D02*
X151546247Y-77248213D01*
X151546247Y-77248213D02*
X151403390Y-77248213D01*
X151403390Y-77248213D02*
X151212914Y-77200594D01*
X151212914Y-77200594D02*
X151117676Y-77152975D01*
X151117676Y-77152975D02*
X151022438Y-77057737D01*
X151022438Y-77057737D02*
X150974819Y-76914880D01*
X150974819Y-76914880D02*
X150974819Y-76819642D01*
X150974819Y-76819642D02*
X151022438Y-76676785D01*
X151022438Y-76676785D02*
X151070057Y-76629166D01*
X151974819Y-76152975D02*
X151974819Y-75962499D01*
X151974819Y-75962499D02*
X151927200Y-75867261D01*
X151927200Y-75867261D02*
X151879580Y-75819642D01*
X151879580Y-75819642D02*
X151736723Y-75724404D01*
X151736723Y-75724404D02*
X151546247Y-75676785D01*
X151546247Y-75676785D02*
X151165295Y-75676785D01*
X151165295Y-75676785D02*
X151070057Y-75724404D01*
X151070057Y-75724404D02*
X151022438Y-75772023D01*
X151022438Y-75772023D02*
X150974819Y-75867261D01*
X150974819Y-75867261D02*
X150974819Y-76057737D01*
X150974819Y-76057737D02*
X151022438Y-76152975D01*
X151022438Y-76152975D02*
X151070057Y-76200594D01*
X151070057Y-76200594D02*
X151165295Y-76248213D01*
X151165295Y-76248213D02*
X151403390Y-76248213D01*
X151403390Y-76248213D02*
X151498628Y-76200594D01*
X151498628Y-76200594D02*
X151546247Y-76152975D01*
X151546247Y-76152975D02*
X151593866Y-76057737D01*
X151593866Y-76057737D02*
X151593866Y-75867261D01*
X151593866Y-75867261D02*
X151546247Y-75772023D01*
X151546247Y-75772023D02*
X151498628Y-75724404D01*
X151498628Y-75724404D02*
X151403390Y-75676785D01*
X163316667Y-92507200D02*
X163459524Y-92554819D01*
X163459524Y-92554819D02*
X163697619Y-92554819D01*
X163697619Y-92554819D02*
X163792857Y-92507200D01*
X163792857Y-92507200D02*
X163840476Y-92459580D01*
X163840476Y-92459580D02*
X163888095Y-92364342D01*
X163888095Y-92364342D02*
X163888095Y-92269104D01*
X163888095Y-92269104D02*
X163840476Y-92173866D01*
X163840476Y-92173866D02*
X163792857Y-92126247D01*
X163792857Y-92126247D02*
X163697619Y-92078628D01*
X163697619Y-92078628D02*
X163507143Y-92031009D01*
X163507143Y-92031009D02*
X163411905Y-91983390D01*
X163411905Y-91983390D02*
X163364286Y-91935771D01*
X163364286Y-91935771D02*
X163316667Y-91840533D01*
X163316667Y-91840533D02*
X163316667Y-91745295D01*
X163316667Y-91745295D02*
X163364286Y-91650057D01*
X163364286Y-91650057D02*
X163411905Y-91602438D01*
X163411905Y-91602438D02*
X163507143Y-91554819D01*
X163507143Y-91554819D02*
X163745238Y-91554819D01*
X163745238Y-91554819D02*
X163888095Y-91602438D01*
X164221429Y-91554819D02*
X164459524Y-92554819D01*
X164459524Y-92554819D02*
X164650000Y-91840533D01*
X164650000Y-91840533D02*
X164840476Y-92554819D01*
X164840476Y-92554819D02*
X165078572Y-91554819D01*
X165983333Y-92554819D02*
X165411905Y-92554819D01*
X165697619Y-92554819D02*
X165697619Y-91554819D01*
X165697619Y-91554819D02*
X165602381Y-91697676D01*
X165602381Y-91697676D02*
X165507143Y-91792914D01*
X165507143Y-91792914D02*
X165411905Y-91840533D01*
X151854819Y-81566666D02*
X151378628Y-81899999D01*
X151854819Y-82138094D02*
X150854819Y-82138094D01*
X150854819Y-82138094D02*
X150854819Y-81757142D01*
X150854819Y-81757142D02*
X150902438Y-81661904D01*
X150902438Y-81661904D02*
X150950057Y-81614285D01*
X150950057Y-81614285D02*
X151045295Y-81566666D01*
X151045295Y-81566666D02*
X151188152Y-81566666D01*
X151188152Y-81566666D02*
X151283390Y-81614285D01*
X151283390Y-81614285D02*
X151331009Y-81661904D01*
X151331009Y-81661904D02*
X151378628Y-81757142D01*
X151378628Y-81757142D02*
X151378628Y-82138094D01*
X151854819Y-80614285D02*
X151854819Y-81185713D01*
X151854819Y-80899999D02*
X150854819Y-80899999D01*
X150854819Y-80899999D02*
X150997676Y-80995237D01*
X150997676Y-80995237D02*
X151092914Y-81090475D01*
X151092914Y-81090475D02*
X151140533Y-81185713D01*
X155239580Y-109866666D02*
X155287200Y-109914285D01*
X155287200Y-109914285D02*
X155334819Y-110057142D01*
X155334819Y-110057142D02*
X155334819Y-110152380D01*
X155334819Y-110152380D02*
X155287200Y-110295237D01*
X155287200Y-110295237D02*
X155191961Y-110390475D01*
X155191961Y-110390475D02*
X155096723Y-110438094D01*
X155096723Y-110438094D02*
X154906247Y-110485713D01*
X154906247Y-110485713D02*
X154763390Y-110485713D01*
X154763390Y-110485713D02*
X154572914Y-110438094D01*
X154572914Y-110438094D02*
X154477676Y-110390475D01*
X154477676Y-110390475D02*
X154382438Y-110295237D01*
X154382438Y-110295237D02*
X154334819Y-110152380D01*
X154334819Y-110152380D02*
X154334819Y-110057142D01*
X154334819Y-110057142D02*
X154382438Y-109914285D01*
X154382438Y-109914285D02*
X154430057Y-109866666D01*
X154334819Y-109533332D02*
X154334819Y-108914285D01*
X154334819Y-108914285D02*
X154715771Y-109247618D01*
X154715771Y-109247618D02*
X154715771Y-109104761D01*
X154715771Y-109104761D02*
X154763390Y-109009523D01*
X154763390Y-109009523D02*
X154811009Y-108961904D01*
X154811009Y-108961904D02*
X154906247Y-108914285D01*
X154906247Y-108914285D02*
X155144342Y-108914285D01*
X155144342Y-108914285D02*
X155239580Y-108961904D01*
X155239580Y-108961904D02*
X155287200Y-109009523D01*
X155287200Y-109009523D02*
X155334819Y-109104761D01*
X155334819Y-109104761D02*
X155334819Y-109390475D01*
X155334819Y-109390475D02*
X155287200Y-109485713D01*
X155287200Y-109485713D02*
X155239580Y-109533332D01*
X155239580Y-94904166D02*
X155287200Y-94951785D01*
X155287200Y-94951785D02*
X155334819Y-95094642D01*
X155334819Y-95094642D02*
X155334819Y-95189880D01*
X155334819Y-95189880D02*
X155287200Y-95332737D01*
X155287200Y-95332737D02*
X155191961Y-95427975D01*
X155191961Y-95427975D02*
X155096723Y-95475594D01*
X155096723Y-95475594D02*
X154906247Y-95523213D01*
X154906247Y-95523213D02*
X154763390Y-95523213D01*
X154763390Y-95523213D02*
X154572914Y-95475594D01*
X154572914Y-95475594D02*
X154477676Y-95427975D01*
X154477676Y-95427975D02*
X154382438Y-95332737D01*
X154382438Y-95332737D02*
X154334819Y-95189880D01*
X154334819Y-95189880D02*
X154334819Y-95094642D01*
X154334819Y-95094642D02*
X154382438Y-94951785D01*
X154382438Y-94951785D02*
X154430057Y-94904166D01*
X154334819Y-94047023D02*
X154334819Y-94237499D01*
X154334819Y-94237499D02*
X154382438Y-94332737D01*
X154382438Y-94332737D02*
X154430057Y-94380356D01*
X154430057Y-94380356D02*
X154572914Y-94475594D01*
X154572914Y-94475594D02*
X154763390Y-94523213D01*
X154763390Y-94523213D02*
X155144342Y-94523213D01*
X155144342Y-94523213D02*
X155239580Y-94475594D01*
X155239580Y-94475594D02*
X155287200Y-94427975D01*
X155287200Y-94427975D02*
X155334819Y-94332737D01*
X155334819Y-94332737D02*
X155334819Y-94142261D01*
X155334819Y-94142261D02*
X155287200Y-94047023D01*
X155287200Y-94047023D02*
X155239580Y-93999404D01*
X155239580Y-93999404D02*
X155144342Y-93951785D01*
X155144342Y-93951785D02*
X154906247Y-93951785D01*
X154906247Y-93951785D02*
X154811009Y-93999404D01*
X154811009Y-93999404D02*
X154763390Y-94047023D01*
X154763390Y-94047023D02*
X154715771Y-94142261D01*
X154715771Y-94142261D02*
X154715771Y-94332737D01*
X154715771Y-94332737D02*
X154763390Y-94427975D01*
X154763390Y-94427975D02*
X154811009Y-94475594D01*
X154811009Y-94475594D02*
X154906247Y-94523213D01*
X153779819Y-88801904D02*
X154589342Y-88801904D01*
X154589342Y-88801904D02*
X154684580Y-88754285D01*
X154684580Y-88754285D02*
X154732200Y-88706666D01*
X154732200Y-88706666D02*
X154779819Y-88611428D01*
X154779819Y-88611428D02*
X154779819Y-88420952D01*
X154779819Y-88420952D02*
X154732200Y-88325714D01*
X154732200Y-88325714D02*
X154684580Y-88278095D01*
X154684580Y-88278095D02*
X154589342Y-88230476D01*
X154589342Y-88230476D02*
X153779819Y-88230476D01*
X153875057Y-87801904D02*
X153827438Y-87754285D01*
X153827438Y-87754285D02*
X153779819Y-87659047D01*
X153779819Y-87659047D02*
X153779819Y-87420952D01*
X153779819Y-87420952D02*
X153827438Y-87325714D01*
X153827438Y-87325714D02*
X153875057Y-87278095D01*
X153875057Y-87278095D02*
X153970295Y-87230476D01*
X153970295Y-87230476D02*
X154065533Y-87230476D01*
X154065533Y-87230476D02*
X154208390Y-87278095D01*
X154208390Y-87278095D02*
X154779819Y-87849523D01*
X154779819Y-87849523D02*
X154779819Y-87230476D01*
D12*
%TO.C,G\u002A\u002A\u002A*%
G36*
X177127106Y-87319578D02*
G01*
X177244404Y-87340969D01*
X177359854Y-87376586D01*
X177472827Y-87426216D01*
X177582693Y-87489645D01*
X177688822Y-87566661D01*
X177790582Y-87657049D01*
X177887346Y-87760597D01*
X177978482Y-87877091D01*
X178019029Y-87936005D01*
X178106076Y-88081469D01*
X178182039Y-88237198D01*
X178246561Y-88402093D01*
X178299282Y-88575055D01*
X178339845Y-88754986D01*
X178367892Y-88940787D01*
X178377012Y-89034325D01*
X178379472Y-89074688D01*
X178381392Y-89125409D01*
X178382748Y-89182866D01*
X178383514Y-89243437D01*
X178383666Y-89303499D01*
X178383181Y-89359429D01*
X178382032Y-89407605D01*
X178380197Y-89444405D01*
X178379818Y-89449231D01*
X178357383Y-89640465D01*
X178323090Y-89825016D01*
X178277237Y-90001970D01*
X178220121Y-90170412D01*
X178152039Y-90329429D01*
X178073287Y-90478106D01*
X178015430Y-90570394D01*
X177976161Y-90627502D01*
X177940142Y-90676013D01*
X177903370Y-90720864D01*
X177861843Y-90766990D01*
X177823073Y-90807544D01*
X177760046Y-90868810D01*
X177739213Y-90889061D01*
X177658194Y-90957861D01*
X177577330Y-91015843D01*
X177493936Y-91064903D01*
X177405325Y-91106942D01*
X177391246Y-91112830D01*
X177277854Y-91151298D01*
X177159557Y-91175989D01*
X177099338Y-91181366D01*
X177038742Y-91186777D01*
X176920661Y-91183614D01*
X176917797Y-91183537D01*
X176799110Y-91166145D01*
X176725592Y-91147575D01*
X176611113Y-91105667D01*
X176499181Y-91049119D01*
X176390691Y-90978832D01*
X176286540Y-90895704D01*
X176259953Y-90870152D01*
X176187622Y-90800635D01*
X176094835Y-90694525D01*
X176009073Y-90578273D01*
X175931233Y-90452779D01*
X175862211Y-90318941D01*
X175831659Y-90250062D01*
X175769024Y-90086555D01*
X175743528Y-90003103D01*
X175879270Y-90003103D01*
X175880642Y-90011055D01*
X175886354Y-90030619D01*
X175895453Y-90058706D01*
X175905101Y-90086865D01*
X175935586Y-90165606D01*
X175973239Y-90249513D01*
X176016268Y-90335383D01*
X176062884Y-90420013D01*
X176111295Y-90500197D01*
X176159713Y-90572733D01*
X176206345Y-90634415D01*
X176220400Y-90651110D01*
X176259953Y-90696667D01*
X176259851Y-90620653D01*
X176384961Y-90620653D01*
X176384961Y-90819358D01*
X176449418Y-90866448D01*
X176509657Y-90906886D01*
X176576167Y-90945470D01*
X176643644Y-90979386D01*
X176706785Y-91005817D01*
X176722188Y-91011233D01*
X176769994Y-91025885D01*
X176818786Y-91038473D01*
X176864282Y-91048056D01*
X176902198Y-91053694D01*
X176920661Y-91054799D01*
X176947496Y-91054799D01*
X176947496Y-90809964D01*
X176947496Y-90565129D01*
X176942678Y-90564600D01*
X177072503Y-90564600D01*
X177072503Y-90809700D01*
X177072503Y-91054799D01*
X177099338Y-91054799D01*
X177129823Y-91052236D01*
X177170581Y-91045186D01*
X177217241Y-91034604D01*
X177265428Y-91021447D01*
X177296049Y-91011782D01*
X177377852Y-90979228D01*
X177462271Y-90936404D01*
X177543761Y-90886367D01*
X177605739Y-90841119D01*
X177635038Y-90817794D01*
X177635038Y-90619766D01*
X177635038Y-90421738D01*
X177605739Y-90434691D01*
X177464875Y-90489283D01*
X177322391Y-90528921D01*
X177175812Y-90554250D01*
X177129147Y-90559299D01*
X177072503Y-90564600D01*
X176942678Y-90564600D01*
X176863506Y-90555907D01*
X176726890Y-90534915D01*
X176597450Y-90502952D01*
X176477413Y-90460602D01*
X176443079Y-90445737D01*
X176417338Y-90434227D01*
X176397771Y-90425779D01*
X176388130Y-90422010D01*
X176387787Y-90421948D01*
X176387021Y-90429415D01*
X176386334Y-90450434D01*
X176385755Y-90482930D01*
X176385314Y-90524831D01*
X176385040Y-90574060D01*
X176384961Y-90620653D01*
X176259851Y-90620653D01*
X176259718Y-90522196D01*
X176259483Y-90347724D01*
X176256343Y-90345681D01*
X176203074Y-90311020D01*
X176149071Y-90272264D01*
X176090849Y-90224261D01*
X176032668Y-90170890D01*
X175978790Y-90116027D01*
X175940045Y-90071709D01*
X175917187Y-90044189D01*
X175898095Y-90022069D01*
X175884781Y-90007621D01*
X175879270Y-90003103D01*
X175743528Y-90003103D01*
X175719190Y-89923444D01*
X175681578Y-89757979D01*
X175658820Y-89608498D01*
X175820093Y-89608498D01*
X175823406Y-89620705D01*
X175831099Y-89641995D01*
X175881966Y-89757734D01*
X175946621Y-89869454D01*
X176023302Y-89974679D01*
X176110245Y-90070931D01*
X176184073Y-90138202D01*
X176211560Y-90160841D01*
X176234466Y-90179243D01*
X176250265Y-90191407D01*
X176256343Y-90195371D01*
X176257362Y-90187919D01*
X176258270Y-90167004D01*
X176259023Y-90134791D01*
X176259580Y-90093442D01*
X176259713Y-90073137D01*
X176384961Y-90073137D01*
X176384961Y-90279048D01*
X176453325Y-90310661D01*
X176557455Y-90353922D01*
X176662603Y-90388309D01*
X176765051Y-90412763D01*
X176857646Y-90425930D01*
X176887926Y-90428869D01*
X176914058Y-90431904D01*
X176929916Y-90434298D01*
X176947496Y-90437871D01*
X176947496Y-90188849D01*
X176947496Y-89939836D01*
X177072503Y-89939836D01*
X177072503Y-90187129D01*
X177072503Y-90434423D01*
X177140867Y-90428178D01*
X177275141Y-90408117D01*
X177409203Y-90372521D01*
X177460451Y-90352931D01*
X177760046Y-90352931D01*
X177760046Y-90524799D01*
X177760046Y-90696667D01*
X177799333Y-90651110D01*
X177865923Y-90566228D01*
X177930834Y-90468649D01*
X177992429Y-90361301D01*
X178049071Y-90247112D01*
X178099123Y-90129009D01*
X178115252Y-90085989D01*
X178129390Y-90046103D01*
X178137990Y-90019590D01*
X178141293Y-90005304D01*
X178139536Y-90002099D01*
X178132958Y-90008828D01*
X178130709Y-90011766D01*
X178069295Y-90086598D01*
X177997360Y-90161881D01*
X177919293Y-90233390D01*
X177839484Y-90296896D01*
X177820596Y-90310450D01*
X177760046Y-90352931D01*
X177460451Y-90352931D01*
X177542722Y-90321482D01*
X177566674Y-90310661D01*
X177635038Y-90279048D01*
X177635038Y-90072290D01*
X177635038Y-89865532D01*
X177614884Y-89870590D01*
X177540197Y-89887142D01*
X177454541Y-89902397D01*
X177362557Y-89915695D01*
X177268889Y-89926377D01*
X177178180Y-89933783D01*
X177164306Y-89934617D01*
X177072503Y-89939836D01*
X176947496Y-89939836D01*
X176947496Y-89939826D01*
X176847880Y-89934409D01*
X176768622Y-89928437D01*
X176682484Y-89919088D01*
X176595552Y-89907169D01*
X176513917Y-89893490D01*
X176463457Y-89883359D01*
X176431663Y-89876463D01*
X176406224Y-89871038D01*
X176390562Y-89867808D01*
X176387280Y-89867226D01*
X176386662Y-89874699D01*
X176386106Y-89895761D01*
X176385635Y-89928374D01*
X176385272Y-89970500D01*
X176385040Y-90020101D01*
X176384961Y-90073137D01*
X176259713Y-90073137D01*
X176259896Y-90045121D01*
X176259953Y-90012745D01*
X176259953Y-89830120D01*
X176257991Y-89829435D01*
X177760046Y-89829435D01*
X177760046Y-90012889D01*
X177760046Y-90196342D01*
X177796858Y-90170464D01*
X177824466Y-90148704D01*
X177858922Y-90118048D01*
X177897098Y-90081625D01*
X177935868Y-90042568D01*
X177972104Y-90004007D01*
X178002680Y-89969075D01*
X178020398Y-89946621D01*
X178083682Y-89853303D01*
X178135889Y-89760386D01*
X178167640Y-89692462D01*
X178182138Y-89658727D01*
X178194054Y-89630593D01*
X178202182Y-89610936D01*
X178205316Y-89602633D01*
X178205320Y-89602585D01*
X178200103Y-89604222D01*
X178190789Y-89610398D01*
X178108870Y-89666352D01*
X178022459Y-89717743D01*
X177935626Y-89762399D01*
X177852436Y-89798148D01*
X177812783Y-89812231D01*
X177760046Y-89829435D01*
X176257991Y-89829435D01*
X176188278Y-89805091D01*
X176070727Y-89756555D01*
X175952940Y-89693118D01*
X175836129Y-89615436D01*
X175829730Y-89610743D01*
X175822239Y-89606026D01*
X175820093Y-89608498D01*
X175658820Y-89608498D01*
X175655609Y-89587407D01*
X175640703Y-89408974D01*
X175637523Y-89328130D01*
X175637549Y-89312504D01*
X175768122Y-89312504D01*
X175775447Y-89331771D01*
X175807505Y-89395010D01*
X175854295Y-89455805D01*
X175915029Y-89513537D01*
X175988921Y-89567584D01*
X176075183Y-89617324D01*
X176173028Y-89662138D01*
X176215029Y-89678470D01*
X176259953Y-89695121D01*
X176259953Y-89503813D01*
X176259953Y-89312504D01*
X176384961Y-89312504D01*
X176384961Y-89522804D01*
X176384961Y-89733103D01*
X176453325Y-89748975D01*
X176565208Y-89771766D01*
X176685016Y-89789847D01*
X176815708Y-89803632D01*
X176879132Y-89808562D01*
X176947496Y-89813350D01*
X176947496Y-89562927D01*
X176947496Y-89312504D01*
X177072503Y-89312504D01*
X177072503Y-89562702D01*
X177072503Y-89812901D01*
X177136960Y-89808464D01*
X177263245Y-89797845D01*
X177377497Y-89784043D01*
X177483071Y-89766596D01*
X177566674Y-89748975D01*
X177635038Y-89733103D01*
X177635038Y-89522804D01*
X177635038Y-89312504D01*
X177760046Y-89312504D01*
X177760046Y-89503813D01*
X177760046Y-89695121D01*
X177804970Y-89678643D01*
X177895217Y-89641338D01*
X177978683Y-89598507D01*
X178053742Y-89551332D01*
X178118768Y-89500997D01*
X178172134Y-89448685D01*
X178212214Y-89395579D01*
X178224791Y-89373132D01*
X178237706Y-89346979D01*
X178247360Y-89326786D01*
X178252061Y-89316114D01*
X178252263Y-89315361D01*
X178244761Y-89314662D01*
X178223497Y-89314025D01*
X178190334Y-89313471D01*
X178147136Y-89313023D01*
X178095767Y-89312701D01*
X178038091Y-89312528D01*
X178006155Y-89312504D01*
X178005961Y-89312504D01*
X177760046Y-89312504D01*
X177635038Y-89312504D01*
X177353771Y-89312504D01*
X177072503Y-89312504D01*
X176947496Y-89312504D01*
X176666228Y-89312504D01*
X176384961Y-89312504D01*
X176259953Y-89312504D01*
X176014038Y-89312504D01*
X175768122Y-89312504D01*
X175637549Y-89312504D01*
X175637761Y-89187497D01*
X175768122Y-89187497D01*
X176014038Y-89187497D01*
X176259953Y-89187497D01*
X176259953Y-88996142D01*
X176259953Y-88804787D01*
X176226748Y-88817401D01*
X176182357Y-88835743D01*
X176131720Y-88859042D01*
X176079177Y-88885087D01*
X176029068Y-88911670D01*
X175985734Y-88936580D01*
X175958955Y-88953753D01*
X175890479Y-89007943D01*
X175835115Y-89066478D01*
X175815653Y-89095582D01*
X175793793Y-89128272D01*
X175775447Y-89168230D01*
X175768122Y-89187497D01*
X175637761Y-89187497D01*
X175637837Y-89142536D01*
X175649272Y-88965761D01*
X175658157Y-88899632D01*
X175815653Y-88899632D01*
X175832712Y-88887074D01*
X175952564Y-88807455D01*
X176028923Y-88766898D01*
X176384961Y-88766898D01*
X176384961Y-88977197D01*
X176384961Y-89187497D01*
X176666228Y-89187497D01*
X176947496Y-89187497D01*
X176947496Y-88937581D01*
X176947496Y-88937155D01*
X177072503Y-88937155D01*
X177072503Y-89187497D01*
X177353771Y-89187497D01*
X177635038Y-89187497D01*
X177635038Y-88996146D01*
X177760046Y-88996146D01*
X177760046Y-89187497D01*
X178005961Y-89187497D01*
X178251877Y-89187497D01*
X178244552Y-89168230D01*
X178236272Y-89148879D01*
X178224741Y-89124589D01*
X178221458Y-89118056D01*
X178195609Y-89078867D01*
X178191760Y-89073032D01*
X178148657Y-89026498D01*
X178094097Y-88979847D01*
X178030029Y-88934476D01*
X177958401Y-88891779D01*
X177881162Y-88853152D01*
X177810485Y-88823780D01*
X177760046Y-88804795D01*
X177760046Y-88996146D01*
X177635038Y-88996146D01*
X177635038Y-88977246D01*
X177635038Y-88766996D01*
X177566563Y-88751229D01*
X177501843Y-88737205D01*
X177438222Y-88725397D01*
X177372314Y-88715336D01*
X177300733Y-88706557D01*
X177220093Y-88698593D01*
X177133054Y-88691435D01*
X177072503Y-88686814D01*
X177072503Y-88937155D01*
X176947496Y-88937155D01*
X176947496Y-88687665D01*
X176886945Y-88691890D01*
X176783024Y-88700143D01*
X176691172Y-88709716D01*
X176607855Y-88721091D01*
X176529539Y-88734749D01*
X176453325Y-88751026D01*
X176397272Y-88764040D01*
X176384961Y-88766898D01*
X176028923Y-88766898D01*
X176077169Y-88741273D01*
X176189868Y-88694772D01*
X176259953Y-88669702D01*
X176259953Y-88486634D01*
X176259953Y-88303566D01*
X176238468Y-88318963D01*
X176174210Y-88370229D01*
X176108083Y-88432490D01*
X176043587Y-88502069D01*
X175984220Y-88575287D01*
X175952180Y-88619929D01*
X175926006Y-88661950D01*
X175897631Y-88713413D01*
X175878862Y-88750846D01*
X175869792Y-88768935D01*
X175845225Y-88823134D01*
X175831212Y-88858006D01*
X175815653Y-88899632D01*
X175658157Y-88899632D01*
X175672173Y-88795308D01*
X175706885Y-88628680D01*
X175744788Y-88495001D01*
X175878487Y-88495001D01*
X175878862Y-88496490D01*
X175884349Y-88491729D01*
X175897559Y-88477142D01*
X175916425Y-88455083D01*
X175935730Y-88431766D01*
X175983667Y-88377829D01*
X176041123Y-88320810D01*
X176103705Y-88264743D01*
X176157983Y-88220953D01*
X176384961Y-88220953D01*
X176384961Y-88427391D01*
X176385019Y-88489543D01*
X176385270Y-88537773D01*
X176385829Y-88573784D01*
X176386812Y-88599281D01*
X176388332Y-88615966D01*
X176390505Y-88625543D01*
X176393447Y-88629716D01*
X176397272Y-88630188D01*
X176398634Y-88629855D01*
X176439228Y-88619810D01*
X176492142Y-88609360D01*
X176554093Y-88598972D01*
X176621801Y-88589109D01*
X176691982Y-88580235D01*
X176761355Y-88572816D01*
X176826639Y-88567317D01*
X176851787Y-88565705D01*
X176947496Y-88560245D01*
X176947496Y-88311187D01*
X176947496Y-88311122D01*
X177072503Y-88311122D01*
X177072503Y-88560114D01*
X177167991Y-88565510D01*
X177259400Y-88572497D01*
X177354580Y-88583059D01*
X177448696Y-88596506D01*
X177536912Y-88612146D01*
X177614392Y-88629287D01*
X177614884Y-88629411D01*
X177635038Y-88634469D01*
X177635038Y-88485863D01*
X177760046Y-88485863D01*
X177760046Y-88668950D01*
X177812783Y-88686960D01*
X177857619Y-88704090D01*
X177909954Y-88726981D01*
X177965724Y-88753587D01*
X178020867Y-88781867D01*
X178071319Y-88809774D01*
X178113017Y-88835267D01*
X178127997Y-88845518D01*
X178154872Y-88864756D01*
X178177355Y-88880693D01*
X178192137Y-88890991D01*
X178195609Y-88893296D01*
X178198096Y-88890241D01*
X178194413Y-88875218D01*
X178185342Y-88850257D01*
X178171661Y-88817386D01*
X178154151Y-88778635D01*
X178140807Y-88750690D01*
X178140661Y-88750384D01*
X178078717Y-88639737D01*
X178004209Y-88534927D01*
X177919310Y-88438586D01*
X177826191Y-88353344D01*
X177789344Y-88324591D01*
X177760046Y-88302775D01*
X177760046Y-88485863D01*
X177635038Y-88485863D01*
X177635038Y-88427711D01*
X177635038Y-88220953D01*
X177625272Y-88216437D01*
X177566674Y-88189340D01*
X177462544Y-88146079D01*
X177357396Y-88111692D01*
X177254948Y-88087238D01*
X177162353Y-88074071D01*
X177132073Y-88071132D01*
X177105941Y-88068097D01*
X177090083Y-88065703D01*
X177072503Y-88062130D01*
X177072503Y-88311122D01*
X176947496Y-88311122D01*
X176947496Y-88062130D01*
X176929916Y-88065785D01*
X176913322Y-88068334D01*
X176886962Y-88071453D01*
X176857646Y-88074363D01*
X176755135Y-88089438D01*
X176647106Y-88116248D01*
X176537088Y-88153790D01*
X176453325Y-88189340D01*
X176394727Y-88216437D01*
X176384961Y-88220953D01*
X176157983Y-88220953D01*
X176167020Y-88213662D01*
X176198119Y-88190870D01*
X176259953Y-88147294D01*
X176259915Y-87973993D01*
X176259876Y-87800693D01*
X176239982Y-87824131D01*
X176146349Y-87945785D01*
X176060803Y-88080497D01*
X175986127Y-88222594D01*
X175968767Y-88260173D01*
X175950571Y-88301727D01*
X175932515Y-88344764D01*
X175915576Y-88386793D01*
X175900727Y-88425322D01*
X175888946Y-88457861D01*
X175881208Y-88481918D01*
X175878487Y-88495001D01*
X175744788Y-88495001D01*
X175753754Y-88463378D01*
X175759635Y-88445263D01*
X175817532Y-88286204D01*
X175882649Y-88140082D01*
X175955769Y-88005597D01*
X176037672Y-87881446D01*
X176129141Y-87766331D01*
X176210388Y-87680643D01*
X176384961Y-87680643D01*
X176384961Y-87880184D01*
X176385116Y-87943429D01*
X176385628Y-87992475D01*
X176386568Y-88028748D01*
X176388008Y-88053672D01*
X176390019Y-88068672D01*
X176392672Y-88075172D01*
X176394727Y-88075536D01*
X176405906Y-88070734D01*
X176427630Y-88061395D01*
X176456092Y-88049157D01*
X176470904Y-88042788D01*
X176544973Y-88014785D01*
X176629384Y-87989432D01*
X176718909Y-87968078D01*
X176808319Y-87952071D01*
X176838621Y-87947981D01*
X176947496Y-87934651D01*
X176947496Y-87689927D01*
X177072503Y-87689927D01*
X177072503Y-87934651D01*
X177181378Y-87947981D01*
X177269512Y-87961798D01*
X177359591Y-87981433D01*
X177446388Y-88005539D01*
X177524672Y-88032768D01*
X177549095Y-88042788D01*
X177579426Y-88055830D01*
X177604833Y-88066753D01*
X177621507Y-88073919D01*
X177625272Y-88075536D01*
X177628370Y-88073701D01*
X177630782Y-88064274D01*
X177632577Y-88045830D01*
X177633827Y-88016943D01*
X177634603Y-87976189D01*
X177634610Y-87975202D01*
X177760046Y-87975202D01*
X177760046Y-88147069D01*
X177820596Y-88189703D01*
X177895962Y-88247173D01*
X177969571Y-88311532D01*
X178036455Y-88378256D01*
X178072736Y-88419271D01*
X178096183Y-88447349D01*
X178116197Y-88471297D01*
X178130502Y-88488397D01*
X178136595Y-88495657D01*
X178140807Y-88499695D01*
X178141996Y-88497506D01*
X178139672Y-88487329D01*
X178133344Y-88467400D01*
X178122521Y-88435959D01*
X178110421Y-88401683D01*
X178077120Y-88316780D01*
X178036449Y-88227671D01*
X177990301Y-88137720D01*
X177940565Y-88050290D01*
X177889135Y-87968743D01*
X177837901Y-87896443D01*
X177799517Y-87848891D01*
X177760046Y-87803334D01*
X177760046Y-87975202D01*
X177634610Y-87975202D01*
X177634977Y-87922142D01*
X177635038Y-87880190D01*
X177635038Y-87680656D01*
X177568960Y-87632953D01*
X177482488Y-87576353D01*
X177393018Y-87528628D01*
X177305327Y-87492312D01*
X177301009Y-87490819D01*
X177254143Y-87476176D01*
X177205388Y-87463343D01*
X177159073Y-87453278D01*
X177119527Y-87446942D01*
X177095255Y-87445202D01*
X177072503Y-87445202D01*
X177072503Y-87689927D01*
X176947496Y-87689927D01*
X176947496Y-87445202D01*
X176920661Y-87445202D01*
X176889932Y-87447790D01*
X176848880Y-87454923D01*
X176801813Y-87465656D01*
X176753037Y-87479043D01*
X176722524Y-87488698D01*
X176659623Y-87513376D01*
X176591372Y-87546257D01*
X176523357Y-87584381D01*
X176461168Y-87624793D01*
X176449418Y-87633258D01*
X176384961Y-87680643D01*
X176210388Y-87680643D01*
X176230957Y-87658950D01*
X176233850Y-87656152D01*
X176302570Y-87592679D01*
X176366980Y-87539618D01*
X176430981Y-87494085D01*
X176498472Y-87453195D01*
X176534953Y-87433482D01*
X176652039Y-87380542D01*
X176770427Y-87342896D01*
X176889487Y-87320328D01*
X177008590Y-87312627D01*
X177127106Y-87319578D01*
G37*
D13*
%TO.C,J1*%
X160700000Y-118000000D02*
X160700000Y-120000000D01*
X160700000Y-121900000D02*
X160700000Y-123800000D01*
X160700000Y-123800000D02*
X170100000Y-123800000D01*
X170100000Y-118000000D02*
X170100000Y-120000000D01*
X170100000Y-121900000D02*
X170100000Y-123800000D01*
%TO.C,U1*%
X153850000Y-98190000D02*
X157610000Y-98190000D01*
X153850000Y-105010000D02*
X157610000Y-105010000D01*
X157610000Y-98190000D02*
X157610000Y-99450000D01*
X157610000Y-105010000D02*
X157610000Y-103750000D01*
X152570000Y-98290000D02*
X152330000Y-97960000D01*
X152810000Y-97960000D01*
X152570000Y-98290000D01*
G36*
X152570000Y-98290000D02*
G01*
X152330000Y-97960000D01*
X152810000Y-97960000D01*
X152570000Y-98290000D01*
G37*
%TO.C,C2*%
X155038748Y-112365000D02*
X155561252Y-112365000D01*
X155038748Y-113835000D02*
X155561252Y-113835000D01*
%TO.C,SW2*%
X169000000Y-93000000D02*
X169000000Y-93120000D01*
X169000000Y-94130000D02*
X169000000Y-95270000D01*
X169000000Y-96280000D02*
X169000000Y-96400000D01*
X169000000Y-96400000D02*
X173400000Y-96400000D01*
X173400000Y-93000000D02*
X169000000Y-93000000D01*
X173400000Y-93120000D02*
X173400000Y-93000000D01*
X173400000Y-95270000D02*
X173400000Y-94130000D01*
X173400000Y-96400000D02*
X173400000Y-96280000D01*
%TO.C,J2*%
X175670000Y-109970000D02*
X175670000Y-92130000D01*
X175670000Y-112570000D02*
X175670000Y-111240000D01*
X177000000Y-112570000D02*
X175670000Y-112570000D01*
X178330000Y-92130000D02*
X175670000Y-92130000D01*
X178330000Y-109970000D02*
X175670000Y-109970000D01*
X178330000Y-109970000D02*
X178330000Y-92130000D01*
%TO.C,R6*%
X171072936Y-97765000D02*
X171527064Y-97765000D01*
X171072936Y-99235000D02*
X171527064Y-99235000D01*
%TO.C,R2*%
X162165000Y-111727064D02*
X162165000Y-111272936D01*
X163635000Y-111727064D02*
X163635000Y-111272936D01*
%TO.C,C10*%
X152165000Y-72098752D02*
X152165000Y-71576248D01*
X153635000Y-72098752D02*
X153635000Y-71576248D01*
%TO.C,D2*%
X171750000Y-120210000D02*
X171750000Y-116950000D01*
X171750000Y-120210000D02*
X173450000Y-120210000D01*
X173450000Y-120210000D02*
X173450000Y-116950000D01*
%TO.C,D1*%
X152400000Y-115540000D02*
X152400000Y-119550000D01*
X154400000Y-115540000D02*
X152400000Y-115540000D01*
X154400000Y-115540000D02*
X154400000Y-119550000D01*
%TO.C,C8*%
X155665000Y-93501248D02*
X155665000Y-94023752D01*
X157135000Y-93501248D02*
X157135000Y-94023752D01*
%TO.C,D6*%
X165450000Y-102500000D02*
X165450000Y-107550000D01*
X165900000Y-102050000D02*
X165450000Y-102500000D01*
X166250000Y-103900000D02*
X166250000Y-105700000D01*
X171650000Y-103900000D02*
X171650000Y-105700000D01*
X172450000Y-102050000D02*
X165900000Y-102050000D01*
X172450000Y-107550000D02*
X165450000Y-107550000D01*
X172450000Y-107550000D02*
X172450000Y-102050000D01*
%TO.C,R3*%
X168265000Y-111372936D02*
X168265000Y-111827064D01*
X169735000Y-111372936D02*
X169735000Y-111827064D01*
%TO.C,C7*%
X159761252Y-94665000D02*
X159238748Y-94665000D01*
X159761252Y-96135000D02*
X159238748Y-96135000D01*
%TO.C,D5*%
X161840000Y-102925000D02*
X161840000Y-105785000D01*
X161840000Y-105785000D02*
X163760000Y-105785000D01*
X163760000Y-105785000D02*
X163760000Y-102925000D01*
%TO.C,C4*%
X156865000Y-109638748D02*
X156865000Y-110161252D01*
X158335000Y-109638748D02*
X158335000Y-110161252D01*
%TO.C,D3*%
X176050000Y-120110000D02*
X176050000Y-116850000D01*
X176050000Y-120110000D02*
X177750000Y-120110000D01*
X177750000Y-120110000D02*
X177750000Y-116850000D01*
%TO.C,R5*%
X166372936Y-98365000D02*
X166827064Y-98365000D01*
X166372936Y-99835000D02*
X166827064Y-99835000D01*
%TO.C,D4*%
X156650000Y-115690000D02*
X156650000Y-118950000D01*
X158350000Y-115690000D02*
X156650000Y-115690000D01*
X158350000Y-115690000D02*
X158350000Y-118950000D01*
%TO.C,R4*%
X161965000Y-99672936D02*
X161965000Y-100127064D01*
X163435000Y-99672936D02*
X163435000Y-100127064D01*
%TO.C,C1*%
X152465000Y-85401248D02*
X152465000Y-85923752D01*
X153935000Y-85401248D02*
X153935000Y-85923752D01*
%TO.C,C5*%
X152465000Y-90761252D02*
X152465000Y-90238748D01*
X153935000Y-90761252D02*
X153935000Y-90238748D01*
%TO.C,C9*%
X152465000Y-76723752D02*
X152465000Y-76201248D01*
X153935000Y-76723752D02*
X153935000Y-76201248D01*
%TO.C,SW1*%
X162450000Y-93000000D02*
X162450000Y-93120000D01*
X162450000Y-94130000D02*
X162450000Y-95270000D01*
X162450000Y-96280000D02*
X162450000Y-96400000D01*
X162450000Y-96400000D02*
X166850000Y-96400000D01*
X166850000Y-93000000D02*
X162450000Y-93000000D01*
X166850000Y-93120000D02*
X166850000Y-93000000D01*
X166850000Y-95270000D02*
X166850000Y-94130000D01*
X166850000Y-96400000D02*
X166850000Y-96280000D01*
%TO.C,R1*%
X152465000Y-81172936D02*
X152465000Y-81627064D01*
X153935000Y-81172936D02*
X153935000Y-81627064D01*
%TO.C,C3*%
X152465000Y-109438748D02*
X152465000Y-109961252D01*
X153935000Y-109438748D02*
X153935000Y-109961252D01*
%TO.C,C6*%
X152465000Y-94476248D02*
X152465000Y-94998752D01*
X153935000Y-94476248D02*
X153935000Y-94998752D01*
%TO.C,U2*%
X155625000Y-69990000D02*
X174025000Y-69990000D01*
X155625000Y-88590000D02*
X155625000Y-89590000D01*
X155625000Y-89590000D02*
X157125000Y-89590000D01*
X174025000Y-69990000D02*
X174025000Y-70690000D01*
X174025000Y-89590000D02*
X172525000Y-89590000D01*
X174025000Y-89590000D02*
X174025000Y-88590000D01*
X155625000Y-70740000D02*
X155125000Y-70740000D01*
X155625000Y-70240000D01*
X155625000Y-70740000D01*
G36*
X155625000Y-70740000D02*
G01*
X155125000Y-70740000D01*
X155625000Y-70240000D01*
X155625000Y-70740000D01*
G37*
%TD*%
M02*
